<svg width="56" height="55" viewBox="0 0 56 55" fill="none" xmlns="http://www.w3.org/2000/svg">
<mask id="path-1-inside-1_2_220" fill="white">
<path fill-rule="evenodd" clip-rule="evenodd" d="M38 14C38 19.5228 33.5229 24 28 24C22.4772 24 18 19.5228 18 14C18 8.47715 22.4772 4 28 4C33.5229 4 38 8.47715 38 14ZM32.2982 27.3278C37.9274 25.5138 42 20.2325 42 14C42 6.26801 35.732 0 28 0C20.268 0 14 6.26801 14 14C14 20.2325 18.0726 25.5138 23.7018 27.3278C10.2783 29.3958 0 40.9976 0 55H3.73333C3.73333 41.5979 14.5979 30.7333 28 30.7333C41.4021 30.7333 52.2667 41.5979 52.2667 55H56C56 40.9976 45.7217 29.3958 32.2982 27.3278Z"/>
</mask>
<path fill-rule="evenodd" clip-rule="evenodd" d="M38 14C38 19.5228 33.5229 24 28 24C22.4772 24 18 19.5228 18 14C18 8.47715 22.4772 4 28 4C33.5229 4 38 8.47715 38 14ZM32.2982 27.3278C37.9274 25.5138 42 20.2325 42 14C42 6.26801 35.732 0 28 0C20.268 0 14 6.26801 14 14C14 20.2325 18.0726 25.5138 23.7018 27.3278C10.2783 29.3958 0 40.9976 0 55H3.73333C3.73333 41.5979 14.5979 30.7333 28 30.7333C41.4021 30.7333 52.2667 41.5979 52.2667 55H56C56 40.9976 45.7217 29.3958 32.2982 27.3278Z" fill="white"/>
<path d="M32.2982 27.3278L31.0713 23.5206L31.6891 31.2812L32.2982 27.3278ZM23.7018 27.3278L24.3109 31.2812L24.9287 23.5206L23.7018 27.3278ZM0 55H-4V59H0V55ZM3.73333 55V59H7.73333V55H3.73333ZM52.2667 55H48.2667V59H52.2667V55ZM56 55V59H60V55H56ZM28 28C35.732 28 42 21.732 42 14H34C34 17.3137 31.3137 20 28 20V28ZM14 14C14 21.732 20.268 28 28 28V20C24.6863 20 22 17.3137 22 14H14ZM28 0C20.268 0 14 6.26801 14 14H22C22 10.6863 24.6863 8 28 8V0ZM42 14C42 6.26801 35.732 0 28 0V8C31.3137 8 34 10.6863 34 14H42ZM33.525 31.135C40.7586 28.8041 46 22.0194 46 14H38C38 18.4457 35.0961 22.2236 31.0713 23.5206L33.525 31.135ZM46 14C46 4.05887 37.9411 -4 28 -4V4C33.5228 4 38 8.47715 38 14H46ZM28 -4C18.0589 -4 10 4.05887 10 14H18C18 8.47715 22.4772 4 28 4V-4ZM10 14C10 22.0194 15.2414 28.804 22.475 31.135L24.9287 23.5206C20.9039 22.2236 18 18.4457 18 14H10ZM4 55C4 43.0016 12.8085 33.0532 24.3109 31.2812L23.0928 23.3745C7.74817 25.7384 -4 38.9936 -4 55H4ZM3.73333 51H0V59H3.73333V51ZM28 26.7333C12.3888 26.7333 -0.266667 39.3887 -0.266667 55H7.73333C7.73333 43.807 16.807 34.7333 28 34.7333V26.7333ZM56.2667 55C56.2667 39.3887 43.6113 26.7333 28 26.7333V34.7333C39.193 34.7333 48.2667 43.807 48.2667 55H56.2667ZM56 51H52.2667V59H56V51ZM31.6891 31.2812C43.1915 33.0532 52 43.0016 52 55H60C60 38.9936 48.2518 25.7384 32.9072 23.3745L31.6891 31.2812Z" fill="#1A1A1A" mask="url(#path-1-inside-1_2_220)"/>
</svg>
