<svg width="56" height="56" viewBox="0 0 56 56" fill="none" xmlns="http://www.w3.org/2000/svg">
<path fill-rule="evenodd" clip-rule="evenodd" d="M41.7699 30.1217C43.7003 26.6307 44.5 24.0198 44.5 22.4C44.5 13.1216 37.1127 5.6 28 5.6C18.8873 5.6 11.5 13.1216 11.5 22.4C11.5 24.0198 12.2997 26.6307 14.2301 30.1217C16.0775 33.4626 18.6128 36.9984 21.259 40.2959C23.663 43.2914 26.0792 45.9927 28 48.0474C29.9208 45.9927 32.337 43.2914 34.741 40.2959C37.3872 36.9984 39.9225 33.4626 41.7699 30.1217ZM28 56C28 56 50 34.7712 50 22.4C50 10.0288 40.1503 0 28 0C15.8497 0 6 10.0288 6 22.4C6 34.7712 28 56 28 56Z" fill="#1A1A1A"/>
<ellipse cx="28" cy="18.2" rx="6.875" ry="7" fill="#1A1A1A"/>
</svg>
