<?xml version="1.0" encoding="UTF-8"?>
<svg xmlns="http://www.w3.org/2000/svg" version="1.1" viewBox="0 0 400 400">
  <defs>
    <style>
      .cls-1 {
        fill: #646464;
      }

      .cls-2 {
        fill: #fff;
      }
    </style>
  </defs>
  <!-- Generator: Adobe Illustrator 28.6.0, SVG Export Plug-In . SVG Version: 1.2.0 Build 709)  -->
  <g>
    <g id="Layer_1">
      <path class="cls-2" d="M134,115.1c0,2.2,0,4.4,0,6.7,0,5.6,0,11.2.1,16.8,0,1.2.2,2.5.5,3.7.3,1.4,1,2.7,2,3.7.9,1,2.2,1.7,3.6,1.9,1,.7,1.9,1.5,2.8,2.4l1,1.1v66.7h34.2l-.7-76c-.7-1.3-1.4-2.7-2-4.1-1.2-2.6-2.5-5.1-4-7.6-3.4-5.4-8.3-9.7-14.1-12.3-.9-.4-1.9-.8-2.8-1.2-3.5-1.3-7.2-2.1-11-2.7-1.2-.2-2.5-.4-3.7-.6l-5.9-1v2.4h0ZM58,119l.2,33.4c0,11.8.1,23.6.2,35.5,0,7.3.1,14.6.2,21.9v7.6c0,0,5.4.1,5.4.1h.3s1.4,0,1.4,0h.2s1.5,0,1.5,0c4.8.1,9.7.3,14.5.3h.2c.6,0,1.1,0,1.7,0,1.3,0,2.6-.3,3.8-.8.5-.2,1-.5,1.4-.8,1.6.9,3.2,1.7,4.9,2.2,1.2.4,2.4.7,3.6.9,3.7.7,7.6.7,11.4.2,3.5-.5,6.9-1.5,10.2-3,1.6-.7,3.2-1.5,4.8-2.5,4.3-2.8,7.9-6.4,10.8-10.6.5-.8,1.1-1.6,1.5-2.5,1.2-2.3,2-4.8,2.5-7.3,1-5.6,1.2-11.3.7-17-.1-1.9-.4-3.7-.7-5.6-.6-3.2-1.6-6.4-3.1-9.3-.5-.9-1.1-1.9-1.6-2.7-2.4-3.8-5.4-7.3-9-10.1-.6-.5-1.2-.9-1.9-1.3-2.8-1.8-5.9-3-9.1-3.8-5.1-1.4-10.5-1.6-15.7-.7-2.1.4-4.2,1-6.2,1.8v-28.1h-34v2s0,0,0,0ZM297.3,142.7c-2.3,0-4.6.3-6.9.7-4.4.8-8.5,2.4-12.4,4.6-4.8,2.8-8.8,6.8-11.6,11.6-.9,1.5-1.6,3-2.2,4.6-1.3,3.2-2.1,6.7-2.6,10.1-1-4.5-2.9-8.8-5.5-12.6-2.4-3.5-5.3-6.6-8.7-9.2-7.3-5.5-16.1-8.7-25.3-9.1-1.6,0-3.2,0-4.8.1-7.8.7-15.2,3.4-21.5,7.9-3.5,2.5-6.5,5.5-9.1,9-2.4,3.3-4.2,7-5.3,10.9-.4,1.6-.7,3.3-.9,5-.3,3.1-.5,6.2-.4,9.3,0,.8,0,1.7.2,2.5.3,2.2,1.1,4.4,2,6.5.5,1.2,1.1,2.4,1.7,3.6,3.2,5.9,7.7,11,13.1,15,3.2,2.3,6.7,4.1,10.5,5.2,3.8,1.2,7.8,1.7,11.7,1.9,1.5,0,3.1,0,4.6-.1,4.7-.3,9.4-1.3,13.8-3.1.7-.3,1.3-.5,1.9-.9,2.8-1.4,5.3-3.1,7.8-5.1,2.2-1.8,4.2-3.7,6.1-5.8,1.2-1.3,2.3-2.8,3.3-4.3,2.1-3.3,3.7-7,4.6-10.8.4,3.9,1.3,7.7,2.9,11.3,1,2.2,2.3,4.3,3.9,6.2,2.1,2.5,4.6,4.7,7.4,6.4,2.9,1.8,6,3.3,9.2,4.6,1.4.5,2.8.9,4.3,1.2v31.7l5.3-.2h.5s.5,0,.5,0h.2s1.2,0,1.2,0c5-.2,9.9-.3,14.9-.6,3.4-.2,6.8-1,9.9-2.5.8-.4,1.7-.8,2.5-1.3,3.2-1.8,6.1-4.1,8.7-6.8.3-.3.6-.7.9-1.1,2.1-2.5,3.9-5.2,5.2-8.1.6-1.3,1-2.7,1.3-4.1.9-3.6,1.2-7.4,1.4-11.1,0-1.9.2-3.8.2-5.7.3-12.1.2-24.2.2-36.3,0-3,0-5.9,0-8.9v-20.6h-33v.9c-3.7-1.5-7.7-2.3-11.7-2.2h0ZM222.6,175c.4,0,.8,0,1.2.2.1,0,.2.2.4.3,1.3,1.2,2.6,2.4,3.7,3.8.1.3.2.6.2.9,0,.8,0,1.5,0,2.3-.3,2-1.3,3.7-2.8,5-.8.6-1.6,1.1-2.6,1.3-1.2.3-2.5.2-3.7-.2-1.5-.5-2.8-1.6-3.7-2.9-.3-.5-.6-1.1-.7-1.7-.4-1.6-.3-3.3.4-4.8.3-.6.6-1.1,1-1.5.7-1,1.6-1.8,2.7-2.2.4-.1.7-.2,1.1-.2.8-.1,1.7-.2,2.6-.2.1,0,.3,0,.4,0ZM302.8,175.1c.6,0,1.3,0,1.8.3,1.7.6,3.2,1.9,3.9,3.5.2.5.4,1,.6,1.5.3,1.3.3,2.6-.1,3.8-.2.5-.4.9-.7,1.4h0c-.8,1.1-1.9,1.9-3,2.4-.8.4-1.7.6-2.6.8-.6,0-1.2-.1-1.7-.4-.6-.2-1.2-.5-1.8-.8-1-.7-1.8-1.7-2.3-2.8-.6-1.5-.7-3.1-.4-4.6.2-.7.5-1.4.9-2,1-1.6,2.7-2.7,4.6-3,.3,0,.6,0,1,0ZM99.5,176.2c.7,0,1.4.1,2,.4,1.4.6,2.6,1.8,3.2,3.3.3.8.4,1.6.3,2.5,0,1.2-.5,2.4-1.2,3.4-.8.8-1.8,1.4-2.9,1.8-1.2.4-2.6.6-3.9.4-1-.2-1.9-.7-2.6-1.5-.8-1-1.3-2.2-1.4-3.4-.2-1.4.1-2.8.8-4.1.4-.8,1.1-1.4,1.8-1.9,1.1-.7,2.4-1,3.7-1h0Z"/>
      <path class="cls-1" d="M196.6,377.8c-1.7-1.6-7.6-14.4-18.7-40.5l-16.2-38.3h-48.2c-27.9,0-50.5-.4-53.6-1-8-1.5-18.8-7.2-24.6-13-5.9-5.9-11.6-16.2-13.2-23.8-.8-3.6-1.1-31.4-1.1-88.5s.2-84.1,1.5-89.2c4.8-18.4,20.1-32.5,38.5-35.4,9-1.5,269.1-1.5,278,0,17.9,2.8,32.7,15.6,38,32.6,1.9,6.3,2,9.2,2,91.7s-.4,86.7-1.1,89.5c-2.7,11.9-12.9,25.1-23.7,30.9-11.1,5.9-13.8,6.2-66.8,6.2h-48.1l-16.2,38.3c-9,21-17,38.9-17.9,39.8-3,3-5.8,3.2-8.6.7ZM321,241.5c3-1.7,6.9-4.9,8.7-7.3,5.9-7.8,6.3-10.7,6.3-49.4v-34.8h-21v6.3l-2.2-2c-5.5-5-12.9-6.7-21.4-5-16,3.3-24.4,14.7-24.4,33.1s4.2,23.1,15.6,28.7c5.1,2.5,7.7,3.2,12.2,3.2,7.2,0,13.2-1.7,16.7-4.5l2.8-2.2-.7,4.4c-1.4,8.7-6,13-14,13h-4.6v20.2l10.3-.4c9-.3,10.8-.7,15.7-3.3h0ZM117.6,210.8c5.7-2.6,11.2-8.2,13.8-13.7,2.8-6.3,2.9-21.2.2-29-2-5.9-8.1-13.3-13-15.9-10.2-5.3-23.2-4.4-30.3,2.1l-2.3,2v-33.3h-22l.2,44.3.3,44.2,10.8.3c10.2.3,10.7.2,10.7-1.8s.3-2.5,4.9.5c7,4.7,17.2,4.8,26.7.3h0ZM234.7,211.8c6.1-2.2,14.4-9.3,17.7-15.2,10.9-19-1.5-42-25.1-46.6-14.8-2.9-30.8,4.3-37.8,17.1-2.2,4.2-3,7-3.3,13-.4,6.7,0,8.3,2.3,13.7,2.9,6.5,9.5,13.6,15.5,16.7,8.7,4.5,20.7,5,30.7,1.3ZM171.8,177.7l-.3-34.2-3.3-6.7c-4.6-9.3-11.9-14.3-23.9-16.3l-4.3-.7v11.1c0,9.5.2,11.1,1.6,11.1s3.1,1.5,5,3.4l3.4,3.4v63.2h22.1l-.3-34.3Z"/>
      <path class="cls-1" d="M297.3,193.5c-6.6-2.8-9.2-11.8-5.3-18.2,5.4-8.9,18-8.1,22.2,1.4,3.1,7.1,0,14.4-7.5,17.2-3.7,1.4-5.5,1.3-9.4-.4h0ZM92.2,192.4c-7.4-5.1-6.6-17.1,1.4-20.9,11-5.2,21.5,5.7,15.9,16.5-2.8,5.5-12.3,7.9-17.3,4.4h0ZM214.3,193c-6-3.6-8-11.4-4.4-17.5.1-.2.3-.4.4-.6,2.9-4.3,6-5.9,11.6-5.9s4.9.5,8.2,3.9c3.3,3.3,3.9,4.5,3.9,8.2,0,10.7-10.9,17.3-19.7,11.9h0Z"/>
    </g>
  </g>
</svg>