<?xml version="1.0" encoding="UTF-8"?><svg id="Layer_1" xmlns="http://www.w3.org/2000/svg" viewBox="0 0 64.13 30"><defs><style>.cls-1{fill:#fff;}</style></defs><polygon class="cls-1" points="16.15 .24 20.02 .24 20.02 18.06 16.15 18.06 16.15 .24 16.15 .24"/><path class="cls-1" d="M0,.92v11.21h13.19V.9l-13.19.02h0ZM9.36,8.61H3.81v-4.14l5.55-.02v4.16h0Z"/><polygon class="cls-1" points="6.57 18.74 10.46 18.74 10.46 26.45 20.13 26.45 20.13 29.92 6.52 29.92 6.57 18.74 6.57 18.74"/><path class="cls-1" d="M24.32,18.74l-.11,11.26h13.37v-11.26h-13.26ZM33.76,26.45h-5.68l.04-4.18h5.64v4.18h0Z"/><polygon class="cls-1" points="22.95 13.69 22.95 17.2 38.92 17.2 38.92 13.76 22.95 13.69 22.95 13.69"/><path class="cls-1" d="M24.45,6.58c0,3.63,2.96,6.58,6.6,6.58s6.59-2.95,6.59-6.58-2.96-6.58-6.59-6.58-6.6,2.95-6.6,6.58h0ZM28.15,6.58c0-1.59,1.3-2.88,2.9-2.88s2.9,1.29,2.9,2.88-1.3,2.88-2.9,2.88-2.9-1.29-2.9-2.88h0Z"/><polygon class="cls-1" points="46.86 .94 50.37 .94 56.35 10.6 53.25 12.96 48.6 4.66 43.83 12.96 40.71 10.7 46.86 .94 46.86 .94"/><polygon class="cls-1" points="57.67 .24 61.49 .24 61.49 4.59 64.13 4.59 64.13 8.41 61.42 8.41 61.42 18.07 57.53 18.07 57.67 .24 57.67 .24"/></svg>