<?xml version="1.0" encoding="UTF-8"?>
<svg xmlns="http://www.w3.org/2000/svg" version="1.1" viewBox="0 0 48 48">
  <defs>
    <style>
      .cls-1 {
        fill: #2e3192;
      }

      .cls-1, .cls-2 {
        opacity: .3;
      }

      .cls-1, .cls-2, .cls-3 {
        stroke-width: 0px;
      }

      .cls-2 {
        fill: #ec008c;
      }

      .cls-3 {
        fill: #fff;
      }

      .cls-4 {
        display: none;
      }
    </style>
  </defs>
  <g id="Layer_1" data-name="Layer 1" class="cls-4">
    <rect class="cls-2" width="48" height="48"/>
    <rect class="cls-1" x="4" y="4" width="40" height="40"/>
  </g>
  <g id="event">
    <g>
      <path class="cls-3" d="M13,13v-2h4v2c0,1.1-.9,2-2,2s-2-.9-2-2Z"/>
      <path class="cls-3" d="M17,9v4c0,1.1-.9,2-2,2s-2-.9-2-2v-4c0-1.1.9-2,2-2s1,.2,1.4.6c.4.4.6.9.6,1.4Z"/>
      <path class="cls-3" d="M17,9v4c0,1.1-.9,2-2,2s-2-.9-2-2v-4c0-1.1.9-2,2-2s1,.2,1.4.6c.4.4.6.9.6,1.4Z"/>
      <path class="cls-3" d="M35,9v4c0,1.1-.9,2-2,2s-2-.9-2-2v-4c0-1.1.9-2,2-2s1,.2,1.4.6c.4.4.6.9.6,1.4Z"/>
      <path class="cls-3" d="M35,9v4c0,1.1-.9,2-2,2s-2-.9-2-2v-4c0-1.1.9-2,2-2s1,.2,1.4.6c.4.4.6.9.6,1.4Z"/>
      <g>
        <path class="cls-3" d="M33,15c1.1,0,2-.9,2-2v-2h-4v2c0,1.1.9,2,2,2Z"/>
        <path class="cls-3" d="M42,11h-5v2c0,2.2-1.8,4-4,4s-4-1.8-4-4v-2h-10v2c0,2.2-1.8,4-4,4s-4-1.8-4-4v-2h-5c-1.1,0-2,.9-2,2v26c0,1.1.9,2,2,2h36c1.1,0,2-.9,2-2V13c0-1.1-.9-2-2-2ZM32,29.7l-3.9,2.9,1.4,4.6c.3.9-.7,1.7-1.5,1.1l-4-2.8-4,2.8c-.8.5-1.8-.2-1.5-1.1l1.4-4.6-3.9-2.9c-.8-.6-.4-1.8.6-1.8h4.9c0-.1,1.6-4.7,1.6-4.7.3-.9,1.6-.9,1.9,0l1.6,4.6h4.9c1,.1,1.3,1.3.6,1.9ZM38,21H10c-.5,0-1-.5-1-1s.5-1,1-1h28c.5,0,1,.5,1,1s-.5,1-1,1Z"/>
      </g>
    </g>
  </g>
  <g id="application" class="cls-4">
    <g>
      <path class="cls-3" d="M38,11.9h-3v3c0,1.1-.9,2-2,2H15c-1.1,0-2-.9-2-2v-3h-3c-1.1,0-2,.9-2,2v28c0,1.1.9,2,2,2h28c1.1,0,2-.9,2-2V13.9c0-1.1-.9-2-2-2ZM19.3,35.5l-4.8,3.8-2.1-3c-.2-.3-.2-.8.2-1,.3-.2.8-.2,1,.2l1.2,1.7,3.6-2.9c.3-.3.8-.2,1.1.1.3.3.2.8-.1,1.1ZM19.3,28.2l-4.8,3.8-2.1-3c-.2-.3-.2-.8.2-1,.3-.2.8-.2,1,.2l1.2,1.7,3.6-2.8c.3-.3.8-.2,1.1.1.3.3.2.8-.1,1ZM19.3,20.8l-4.8,3.8-2.1-3c-.2-.3-.2-.8.2-1,.3-.2.8-.2,1,.2l1.2,1.7,3.6-2.9c.3-.2.8-.2,1.1.1.3.3.2.8-.1,1.1ZM35,39h-12.7c-.4,0-.8-.3-.8-.8s.3-.8.8-.8h12.7c.4,0,.8.3.8.8s-.3.8-.8.8ZM35,31.7h-12.7c-.4,0-.8-.3-.8-.8s.3-.8.8-.8h12.7c.4,0,.8.3.8.8s-.3.8-.8.8ZM35,24.4h-12.7c-.4,0-.8-.3-.8-.8s.3-.8.8-.8h12.7c.4,0,.8.3.8.8s-.3.8-.8.8Z"/>
      <path class="cls-3" d="M31,8.9h-2c0-2.8-2.2-5-5-5s-5,2.2-5,5h-2c-1.1,0-2,.9-2,2v2c0,1.1.9,2,2,2h14c1.1,0,2-.9,2-2v-2c0-1.1-.9-2-2-2Z"/>
    </g>
  </g>
  <g id="FAQ" class="cls-4">
    <g>
      <path class="cls-3" d="M40.9,35.6c1.9-2.5,3.1-5.7,3.1-9.1,0-6.8-4.6-12.6-10.8-14.4,1.8,2.7,2.8,5.9,2.8,9.4,0,9.1-7.1,16.5-16,17,2.5,1.9,5.6,3,9,3s6.6-1.2,9.1-3.1h0c0,0,5,2.1,5,2.1l-2-5h0Z"/>
      <path class="cls-3" d="M19,6.5c-8.3,0-15,6.7-15,15s1.2,6.6,3.1,9.1h0c0,0-2,4.9-2,4.9l5-2h0c2.5,1.8,5.7,3,9.1,3,8.3,0,15-6.7,15-15s-6.7-15-15-15ZM20,29.1c-.3.3-.6.4-1,.4s-.7-.1-1-.4c-.3-.3-.4-.7-.4-1s.1-.8.4-1c.3-.3.6-.5,1-.5s.7.2,1,.5c.3.3.4.6.4,1s-.1.7-.4,1ZM23.2,18.8c-.1.5-.4,1-.6,1.4h0c-.2.3-.5.6-.8.9-.3.2-.6.5-.8.8-.3.3-.5.6-.5.9s-.1.7-.2,1c0,.4-.1.7-.3,1-.2.3-.4.4-.9.4-.3,0-.5-.1-.6-.3-.1-.2-.2-.4-.3-.6s0-.5,0-.7c0-.3,0-.5,0-.7,0-.5.2-.9.4-1.3.2-.4.5-.8.8-1.2.2-.2.3-.4.5-.5.2-.2.3-.3.5-.5.1-.2.3-.4.4-.6.1-.2.2-.5.2-.7,0-.3,0-.5,0-.8,0-.3-.2-.5-.4-.7-.2-.2-.4-.4-.6-.5-.2-.1-.5-.2-.7-.2-.2,0-.5,0-.8,0-.3,0-.5.2-.7.3s-.4.3-.5.5c-.1.2-.2.5-.2.7,0,.2,0,.3,0,.5,0,.2,0,.3.1.5,0,.2,0,.3,0,.5,0,.1-.1.3-.3.4-.2.2-.5.3-.7.3-.2,0-.5,0-.7-.2-.2-.1-.4-.3-.5-.6-.1-.2-.2-.5-.3-.7,0-.3,0-.7,0-1.1,0-.4,0-.7.2-1.1.1-.5.4-.9.7-1.2.3-.3.7-.6,1.1-.8.5-.2.9-.4,1.4-.5.5,0,.9-.1,1.4,0s.9.2,1.3.4c.4.2.8.4,1.2.8.4.4.7.8.9,1.2s.3,1,.3,1.5c0,.5,0,1-.2,1.5Z"/>
    </g>
  </g>
  <g id="map" class="cls-4">
    <path class="cls-3" d="M24,4c-8.8,0-16,7.2-16,16s14.4,23.2,16,24c1.6-.8,16-15.2,16-24S32.8,4,24,4ZM24,26c-3.3,0-6-2.7-6-6s2.7-6,6-6,6,2.7,6,6-2.7,6-6,6Z"/>
  </g>
</svg>