<?xml version="1.0" encoding="UTF-8"?>
<svg id="Layer_1" data-name="Layer 1" xmlns="http://www.w3.org/2000/svg" version="1.1" viewBox="0 0 400 650">
  <defs>
    <style>
      .cls-1 {
        fill: #e85752;
      }

      .cls-1, .cls-2, .cls-3, .cls-4, .cls-5, .cls-6, .cls-7, .cls-8, .cls-9, .cls-10, .cls-11, .cls-12, .cls-13, .cls-14, .cls-15, .cls-16, .cls-17, .cls-18, .cls-19, .cls-20, .cls-21, .cls-22, .cls-23, .cls-24, .cls-25, .cls-26, .cls-27, .cls-28, .cls-29, .cls-30, .cls-31, .cls-32, .cls-33 {
        stroke-width: 0px;
      }

      .cls-2 {
        fill: #c45d32;
      }

      .cls-3 {
        fill: #edad65;
      }

      .cls-4 {
        fill: #fcaa3e;
      }

      .cls-5 {
        fill: #d2443a;
      }

      .cls-6 {
        fill: #613218;
      }

      .cls-7 {
        fill: #ffa953;
      }

      .cls-8 {
        fill: #ffde7d;
      }

      .cls-9 {
        fill: #ffa255;
      }

      .cls-10 {
        fill: #b93a27;
      }

      .cls-11 {
        fill: #af3d23;
      }

      .cls-12 {
        fill: none;
      }

      .cls-13 {
        fill: #f68368;
      }

      .cls-14 {
        fill: #e68562;
      }

      .cls-15 {
        fill: #e55755;
      }

      .cls-16 {
        fill: #7f2c1c;
      }

      .cls-17 {
        fill: #812b1c;
      }

      .cls-18 {
        fill: #f38c61;
      }

      .cls-19 {
        fill: #e34a4c;
      }

      .cls-20 {
        fill: #ba2525;
      }

      .cls-21 {
        fill: #ffce99;
      }

      .cls-22 {
        fill: #e44a4c;
      }

      .cls-23 {
        fill: #fab359;
      }

      .cls-24 {
        fill: #f3665c;
      }

      .cls-25 {
        fill: #b82626;
      }

      .cls-26 {
        fill: #bf2f2e;
      }

      .cls-27 {
        fill: #f4ca6c;
      }

      .cls-28 {
        fill: #fdecb8;
      }

      .cls-29 {
        fill: #231f20;
      }

      .cls-30 {
        fill: #d6423e;
      }

      .cls-31 {
        fill: #812500;
      }

      .cls-32 {
        fill: #cd4c36;
      }

      .cls-33 {
        fill: #fbcf78;
      }
    </style>
  </defs>
  <g>
    <path class="cls-16" d="M182.5,311.3c-1.9,1.1-3.8,2.5-5.6,4.3l-42.2,55,16,31.6,60.7-5.5-28.7-85.6c0,0-.1,0-.2.1Z"/>
    <path class="cls-17" d="M280.4,311.1c-3.1-2-6.2-3.3-9.2-4.1h0c0,0-.1,0-.2,0l-.7,84.5,23.5-2.1,23.8-2.2,5.9-40.6-43.1-35.5Z"/>
    <path class="cls-11" d="M266.1,306.3l-76.2,2.9c-2.4,0-4.8.8-7.2,2.1l28.7,85.6,34-3.1,24.8-2.2.7-84.5c-1.6-.4-3.2-.6-4.8-.7Z"/>
  </g>
  <g>
    <path class="cls-1" d="M142.3,171.9l-25.8-89.7c-.5-5.8,1.3-16.8,2.2-21.3,0,0-.1,0-.2,0-.3.4-.6.8-.9,1.2-27,32.6-48.9,66.8-66.1,102.6-1.2,14-1.5,27.7,0,41l32.3,64c8.8-27.1,26.6-68.5,58.6-97.9Z"/>
    <path class="cls-13" d="M116.5,82.2l25.8,89.7c14-12.8,30.6-23.3,50.4-29.3,23.4-8,48.6-9.9,75.5,2.4l-.8-49.1s-.1-21.1-14.8-35.6c-.8-.6-1.6-1.1-2.4-1.7-47.3-12.4-91.5-14.2-130.4,1.9-.3.1-.7.3-1,.4,0,0,0,0,0,0-.8,4.5-2.7,15.5-2.2,21.3Z"/>
    <path class="cls-15" d="M267.5,95.8l.8,49.1c23.4,10.7,48.2,32.3,74.3,70.1l7.1-49.3c-3-13.4-8.9-26.6-20.8-39.6-21.1-23.3-44.7-44.3-71.5-62.7-.5-.4-1.1-.8-1.6-1.1-.9-.7-1.9-1.3-2.8-1.9,0,0,0,0,0,0,0,0-.2-.1-.2-.2,14.7,14.5,14.8,35.6,14.8,35.6Z"/>
    <path class="cls-22" d="M268.2,144.9l2.4,154.6c.1,0,.2,0,.3,0,.3,0,.7.2,1,.2,3.3.8,6.1,2.1,8.4,3.8l44,36.5,18.1-125.1c-26.1-37.8-50.8-59.4-74.3-70.1Z"/>
    <path class="cls-19" d="M180.8,305.3s0,0,0,0c-1.3.8-2.6,1.7-3.9,2.8l-45.2,56.6-12-23.7-2.3-4.5-2.1-4.1-.4-.7-.7-1.3-1-2-.7-1.3h0l-2.1-4.1h0s0-.2,0-.2l-2.2-4.4v-.2c0,0-1.3-2.5-1.3-2.5v-.2c-.1,0-1-1.8-1-1.8l-.3-.7-3.6-7.2-.7-1.4-1-2-.7-1.3-1.5-3-.5-1-.7-1.4h0s-4.3-8.6-4.3-8.6l-8.8-17.3c8.8-27.1,26.6-68.5,58.6-97.9l38.4,133.4Z"/>
    <path class="cls-24" d="M192.8,142.5c-19.8,6-36.5,16.5-50.4,29.3l38.4,133.4c.3-.2.5-.3.8-.5,2.7-1.5,5.5-2.6,8.4-3.2l76.2-2.9c1.4.2,2.7.4,4,.6.2,0,.4,0,.6.1l-2.4-154.6c-22.7-10.4-44.1-10.6-64.3-5.6s-7.5,2-11.1,3.3Z"/>
  </g>
  <g>
    <polygon class="cls-25" points="109.5 315.3 108.2 318.3 108.1 318.1 106.9 315.6 109.5 315.3 109.5 315.3"/>
    <g>
      <path class="cls-25" d="M122.9,341.5c-1.6-2.2-.4-8.8-.4-8.8,0,0,6.7.6,8.3,2.8,1.6,2.2,1.2,5.3-1,7-2.2,1.6-5.3,1.2-7-1Z"/>
      <path class="cls-25" d="M127.9,323.4c-.9,0-1.8.4-2.5,1-2.2,1.6-2.8,8.3-2.8,8.3,0,0,6.6,1.3,8.8-.4,2.2-1.6,2.6-4.8,1-7l-4.4-2Z"/>
      <path class="cls-25" d="M122.6,332.7s0,.1,0,.3c0,.4-.1,1.1-.3,2h0c-.4,2.1-1.2,5-2.5,6.1,0,0,0,0,0,0l-2.3-4.5-2.1-4.1c2.8-.6,7.2.2,7.2.2Z"/>
      <path class="cls-25" d="M132.3,325.4l-9.8,7.3-5.2,3.9-2.1-4.1-.4-.7c1.8-.6,3.4-1.5,4.9-2.6,2.4-1.8,4.3-4.2,5.5-6.9l2.5,1.1,4.5,2Z"/>
      <path class="cls-25" d="M124,321.7c-1.1,2.5-2.8,4.6-5,6.3-1.4,1.1-3,1.9-4.7,2.4l-1-2c1.6-.4,3.1-1.2,4.4-2.2,1.9-1.4,3.4-3.3,4.3-5.4l2,.9Z"/>
      <path class="cls-25" d="M120.7,320.2c-.9,1.9-2.2,3.6-3.9,4.8-1.2.9-2.7,1.6-4.2,2h0l-2.1-4.1h0s0-.7,0-.7h0s-.9-7-.9-7c0,0,0,0,0,0h.2c0,0,4.7,2.2,4.7,2.2l6.2,2.7Z"/>
    </g>
    <g>
      <path class="cls-25" d="M135.7,301.8c-2.2,1.6-8.8.4-8.8.4,0,0,.6-6.7,2.8-8.3s5.3-1.2,7,1c1.6,2.2,1.2,5.3-1,7Z"/>
      <path class="cls-25" d="M117.7,296.9c0,.9.4,1.8,1,2.5,1.6,2.2,8.3,2.8,8.3,2.8,0,0,1.3-6.6-.4-8.8s-4.8-2.6-7-1l-2,4.4Z"/>
      <path class="cls-25" d="M129.5,312.6c-.8-.3-1.6-.9-2.1-1.6-1.6-2.2-.4-8.8-.4-8.8,0,0,6.7.6,8.3,2.8s1.2,5.3-1,7l-4.8.6Z"/>
      <path class="cls-25" d="M121.6,313.7l-12.1,1.6,4.9-11.1c1.9.8,3.6,2.2,4.8,3.8,1.3,1.7,2.1,3.6,2.3,5.7Z"/>
      <path class="cls-25" d="M125.2,313.2l-2.2.3c-.3-2.3-1.2-4.5-2.6-6.4-1.4-1.9-3.3-3.4-5.4-4.3l.9-2c2.5,1.1,4.6,2.8,6.3,5,1.6,2.2,2.7,4.7,3,7.4Z"/>
      <path class="cls-25" d="M119.6,292.4l7.3,9.8h0s7.3,9.8,7.3,9.8l-4.8.6-2.7.4c-.4-2.9-1.5-5.7-3.3-8.1-1.8-2.4-4.2-4.3-6.9-5.5l1.1-2.5h0s2-4.5,2-4.5Z"/>
    </g>
    <g>
      <path class="cls-25" d="M96,297.8"/>
      <path class="cls-25" d="M96.8,295.6h0c0,0,0,0,0,0h0s-4.3-8.6-4.3-8.6c1.4,0,2.7.8,3.6,2,1,1.4.9,4.4.7,6.5Z"/>
      <path class="cls-25" d="M96,297.8"/>
      <path class="cls-25" d="M106.9,295.3c-.3.8-.9,1.6-1.6,2.1-1.5,1.1-5.2.9-7.2.6l-.5-1-.7-1.4h0s0,0,0,0h0c.4-2.1,1.2-5,2.5-6.1,2.2-1.7,5.3-1.2,7,1l.6,4.8Z"/>
      <g>
        <path class="cls-25" d="M107.7,301.7c-2.3.3-4.5,1.2-6.4,2.6,0,0,0,0-.1,0l-1-2c2.1-1.6,4.6-2.6,7.2-2.9l.3,2.2Z"/>
        <path class="cls-25" d="M107.2,298.1c-2.8.4-5.4,1.4-7.7,3l-1.5-3-.5-1,8.7-6.6.6,4.8.4,2.7Z"/>
        <path class="cls-25" d="M109.5,315.3h0s-.5-.2-.5-.2l-3.1-1.4-.3-.7-3.6-7.2c0,0,.2-.2.3-.3,1.7-1.2,3.6-2.1,5.7-2.3l1.5,11.6v.2s0,.2,0,.2h0Z"/>
      </g>
    </g>
    <path class="cls-25" d="M110.4,322.2h0c0,.2,0,.3,0,.5l-2.2-4.4v-.2c.5-1.4,1-2.4,1.3-2.9h0s0,0,0,0c0-.1.1-.2.2-.3,0,0,0,.2,0,.3h0c0,0,0,.1,0,.2h0c.2,1.1.7,3.6.7,6.8Z"/>
    <path class="cls-25" d="M120.9,314.8c6.1.9,10.8,3.6,10.8,3.6,0,0-5.3,1.3-11.4.5s-10.8-3.6-10.8-3.6c0,0,5.3-1.3,11.4-.5Z"/>
    <path class="cls-25" d="M109.2,303.5c.9-6.1,3.6-10.8,3.6-10.8,0,0,1.3,5.3.5,11.4s-3.6,10.8-3.6,10.8c0,0-1.3-5.3-.5-11.4Z"/>
    <path class="cls-25" d="M109.7,314.9s0,0-.2,0c-.1,0-.3,0-.5,0-.5,0-1.3.2-2.3.4l-.9-1.8-.3-.7c2,.8,3.4,1.5,3.9,1.8.1,0,.2.1.2.1Z"/>
    <g>
      <path class="cls-25" d="M112.9,269.3c-.7-3.7.3-9.2,2.5-12.2,2.3-2.8,5.7-4.2,3.3-8.4-.3-.4-.6-.8-.9-1.2l.3-.3c2.8,2.1,3.7,4.6,2.8,8.1-.3,1.3-.5,2.6-1,3.8-.5,1.4-1.3,2.8-2,4.1-1.3,2.2-2.8,4.4-4.7,6.2,0,0-.4-.2-.4-.2h0Z"/>
      <path class="cls-25" d="M112.5,271.7c-2.4-.3-4.8-1-7.1-1.4-1,0-1.6-.9-2.2-1.8,0,0,0-.5,0-.5.3-.8.8-1.3,1.3-1.6.5-.3,1.1-.3,1.6-.2,2.9.5,5.5,2.3,6.8,5,0,0-.3.4-.3.4h0Z"/>
      <path class="cls-25" d="M112.2,272.6c1.9-2.9,4.3-5.5,7.6-6.8,1.9-.8,4.3-.6,5.8-2.2,0,0,.5,0,.5,0,0,.4,0,.9-.1,1.3-.8,1.8-2.5,3.3-4.3,4-.6.2-1.2.3-1.8.5-2.4.9-4.9,2.3-7.3,3.4,0,0-.3-.3-.3-.3h0Z"/>
      <path class="cls-25" d="M113.9,267.9c-.7,2.2-1.2,4.5-1.2,6.8,0,0-.5,0-.5,0-.3-1.2-.2-2.5,0-3.6.2-1.2.6-2.3,1.3-3.4,0,0,.4.2.4.2h0Z"/>
      <path class="cls-25" d="M124.7,284.5c-.4-.8-1-1.5-1.8-2-.2,0-.3-.2-.5-.2.2-.1.3-.2.5-.4,1.7-1.5,1.8-4.2.3-5.9-1.6-1.7-4.2-1.8-5.9-.3-.1.1-.3.3-.4.4,0-.2-.1-.4-.2-.5-.7-1.5-2.2-2.5-3.9-2.5-.3,0-.5,0-.8,0-.3,0-.6.2-.9.3-2.1,1-3,3.4-2.1,5.5,0,.2.2.3.3.5-.2,0-.4,0-.6,0-2.3.2-4,2.3-3.7,4.6.2,2.3,2.3,4,4.6,3.7.2,0,.4,0,.6,0,0,.2-.1.4-.2.5-.4,2.1.7,4.1,2.6,4.8,0,0,.2,0,.3,0,.1,0,.2,0,.3,0,2.2.5,4.5-1,4.9-3.3,0-.2,0-.4,0-.6.2.1.3.2.5.3,2,1.2,4.6.5,5.7-1.5.5-.8.6-1.6.5-2.5,0-.4-.2-.9-.3-1.2ZM117.1,286.8c-2.1.9-4.6,0-5.5-2.1-.9-2.1,0-4.6,2.1-5.5,2.1-.9,4.6,0,5.5,2.1.9,2.1,0,4.6-2.1,5.5Z"/>
    </g>
    <path class="cls-25" d="M124.1,285.5c1.1-2.8,4.8-3.2,7.4-3,2.6.3,5.2,1.3,6.9,3.5,0,0-.2.5-.2.5-1.4.7-2.7.9-4.1.9-2.2,0-4.2-.7-6.3-1.2-1.1-.3-2.1-.6-3.3-.4,0,0-.4-.3-.4-.3h0Z"/>
  </g>
  <path class="cls-29" d="M271.8,264.6l-1.3-1.3v2.4c.5-.3.9-.7,1.3-1.1Z"/>
  <g>
    <path class="cls-30" d="M273,195.5c.3-.6.6-1.2,1-1.8-1.9-.9-3.7-2-5.5-3.1v5.8c1-.5,2-.9,3.1-1s.9,0,1.3,0Z"/>
    <path class="cls-30" d="M265.9,209c0,2,1.3,3.7,3.2,4.5l-.2-9.3c-1.8,1-3,2.8-3,4.7Z"/>
    <path class="cls-30" d="M257.7,250.9s5.9.9,12.3,4.1v-1.1s-12-3.1-12-3.1c-.2.1-.3.2-.3.2Z"/>
    <rect class="cls-30" x="250.4" y="226.2" width="0" height="0" transform="translate(-53 78.5) rotate(-16.1)"/>
    <path class="cls-30" d="M257.4,250.6c.2.2.3.3.3.3,0,0,0,0,0-.2h-.3Z"/>
    <path class="cls-30" d="M257.7,250.9s0,0,0,0c0,0,0,0,0,0h0Z"/>
    <path class="cls-30" d="M270.5,279.6v-.8c-1.2-.5-2.5-1.1-3.5-1.7,1.1.7,2.3,1.6,3.5,2.5Z"/>
    <polygon class="cls-30" points="232.2 256.2 232.2 256.2 232.2 256.2 232.2 256.2 232.2 256.2 232.2 256.2 232.2 256.2"/>
    <polygon class="cls-30" points="264.5 275.6 264.5 275.6 264.5 275.6 264.5 275.6 264.5 275.6 264.5 275.6 264.5 275.6"/>
    <path class="cls-30" d="M265.2,243.7l4-3.6-.7.6c.4.4.8.8,1.2,1.3v-5.7c-.8,1.5-1.6,3-2.5,4.6-.6,1-1.3,1.9-2,2.8Z"/>
    <rect class="cls-30" x="250.4" y="226.2" width="0" height="0"/>
    <path class="cls-30" d="M251.8,223.8c1.2-2.2,2.7-5.5,2.2-7.3-.9-3-4.2-4.7-7.4-3.7-3.2.9-5,4.1-4.2,7.1.5,1.8,3.4,3.8,5.6,5.1,1.4.7,2.4,1.3,2.4,1.3,0,0,.6-1,1.4-2.3Z"/>
    <path class="cls-30" d="M250.4,226.2h0s-1.1-.5-2.4-1.3c-2.3-1.1-5.6-2.4-7.5-1.8-2.7.8-4.5,3.3-4.3,5.9.3.3.6.6.9.9l13.3-3.6Z"/>
    <path class="cls-30" d="M250.4,226.2s-1-.6-2.4-1.3c1.3.8,2.4,1.3,2.4,1.3h0Z"/>
    <path class="cls-30" d="M262.1,218.6c-1.4-.7-3-.8-4.6-.4-2,.6-4.3,3.5-5.6,5.6-.8,1.4-1.4,2.3-1.4,2.3l14.8-4-1.5,5.6h0s0,0,0,0l1.5-5.6c-.2-.8-.7-1.5-1.2-2.1-.3-.1-.5-.2-.8-.4-.4-.3-.8-.6-1.1-1Z"/>
    <path class="cls-30" d="M250.4,226.2h0s.7-1,1.4-2.3c-.9,1.3-1.4,2.3-1.4,2.3h0Z"/>
    <path class="cls-30" d="M257.4,250.5l3.8-13.7c-2.5-.6-5.2-.6-7.7,0-2.5.6-4.7,1.8-6.5,3.5l6,5.9c2.3,1.9,3.8,3.6,4.5,4.3Z"/>
    <path class="cls-30" d="M261.6,235.1l.7-2.5c-3.3-.8-6.8-.7-10,.1-3.2.8-6.1,2.4-8.4,4.6l1.8,1.8c2-1.9,4.5-3.2,7.3-3.9,2.8-.7,5.8-.7,8.6,0Z"/>
    <path class="cls-30" d="M250.4,226.2h0s0,0,0,0h0s-3.7,6.9-6.9,7.7c-.7.2-1.3.2-2,.2.5.5,1.1,1,1.6,1.6,0,0-.1.1-.2.2,2.5-2.2,5.5-3.9,8.9-4.8,3.5-.9,7.3-1,11-.2l.9-3.2h0c-.8.8-1.8,1.3-2.9,1.7-3.3.9-10.3-3.2-10.3-3.2Z"/>
    <path class="cls-30" d="M242.6,236.1s0,0,0,0c-.5-.4-.9-.8-1.4-1.2l1.3,1.2Z"/>
    <polygon class="cls-30" points="250.4 226.2 250.4 226.2 250.4 226.2 250.4 226.2"/>
    <path class="cls-30" d="M241.5,234.1c.7,0,1.3,0,2-.2,3.2-.8,6.9-7.7,6.9-7.7l-13.3,3.6c1.5,1.4,3,2.8,4.4,4.3Z"/>
    <path class="cls-30" d="M265.2,222.1l-14.8,4h0s0,0,0,0c0,0,7,4.1,10.3,3.2,1.2-.3,2.2-.9,2.9-1.7h0s1.5-5.6,1.5-5.6Z"/>
    <polygon class="cls-30" points="250.4 226.2 250.4 226.2 250.4 226.2 250.4 226.2 250.4 226.2"/>
    <polygon class="cls-30" points="232.2 256.2 232.2 256.2 232.2 256.2 232.2 256.2 232.2 256.2"/>
    <path class="cls-30" d="M229.9,254.9c-2.1-1.2-5.2-2.6-7-2.2-2.9.7-4.6,3.6-3.8,6.5.8,2.9,3.8,4.8,6.7,4.1,1.8-.4,3.9-3,5.1-5,.7-1.3,1.3-2.2,1.3-2.2,0,0-1-.5-2.3-1.4Z"/>
    <path class="cls-30" d="M232.2,256.2h0s0,0,0,0c0,0-.5,1-1.3,2.2-1.1,2-2.5,5.1-2,6.9.8,3,3.9,4.9,7,4.3l4.1-3.6s0,0,0,0l-4.1,3.6-3.6-13.3Z"/>
    <path class="cls-30" d="M232.2,256.2s-.6.9-1.3,2.2c.8-1.2,1.3-2.1,1.3-2.2h0Z"/>
    <path class="cls-30" d="M232.2,256.2l-3.6-13.2,5.4,1.4h0s0,0,0,0l-5.4-1.4c-3,.7-4.7,3.7-3.9,6.6.5,1.8,3.2,3.9,5.2,5.2,1.3.7,2.3,1.4,2.3,1.4s0,0,0,0Z"/>
    <path class="cls-30" d="M232.2,256.2s-.9-.6-2.3-1.4c1.3.8,2.3,1.4,2.3,1.4,0,0,0,0,0,0Z"/>
    <path class="cls-30" d="M237.1,245.3l-3.1-.8c.7.7,1.3,1.6,1.6,2.6.8,3-3.3,9.1-3.4,9.2h0s6.9,3.7,7.7,6.7c.3,1.1.3,2.1,0,3h0s2.3-2.1,2.3-2.1c-2.4-2.5-4.2-5.6-5.1-8.8-.9-3.2-.9-6.7,0-9.8Z"/>
    <path class="cls-30" d="M239.9,263c-.8-3-7.7-6.7-7.7-6.7h0s3.6,13.4,3.6,13.4l4.1-3.6c.3-.9.3-2,0-3Z"/>
    <path class="cls-30" d="M228.6,243.1l3.6,13.2c0,0,4.2-6.2,3.4-9.2-.3-1-.8-1.9-1.6-2.6h0s-5.4-1.4-5.4-1.4Z"/>
    <path class="cls-30" d="M241.3,254.2c-.7-2.6-.7-5.3,0-7.8l-2.5-.7c-.8,2.9-.8,6.1,0,9,.8,3,2.4,5.8,4.7,8.1l1.9-1.7c-2-2-3.3-4.4-4.1-7Z"/>
    <path class="cls-30" d="M257,250.8c-1.3-.3-4.5-.9-8.1-2.4l-6-1.6c-.6,2.3-.6,4.7,0,7,.6,2.3,1.9,4.5,3.6,6.2l5.8-5.2c2-2.1,3.9-3.6,4.6-4.1Z"/>
    <polygon class="cls-30" points="264.5 275.6 264.5 275.6 264.5 275.6 264.5 275.6 264.5 275.6"/>
    <path class="cls-30" d="M264.5,275.6s-.6,1-1.5,2.3c-1.3,2.1-2.8,5.2-2.3,7.2.9,3.2,4.4,5.4,7.8,4.8.8-.1,1.5-.4,2.1-.8l-.2-9.5c-1.1-.9-2.4-1.8-3.5-2.5-1.5-.8-2.6-1.5-2.6-1.5Z"/>
    <path class="cls-30" d="M264.5,275.6h0s0,0,0,0c0,0,1.1.6,2.6,1.5,1,.6,2.2,1.2,3.4,1.7v-4.3c0,0-6,1-6,1Z"/>
    <path class="cls-30" d="M267.1,277.1c-1.4-.9-2.5-1.5-2.6-1.5h0s1.1.7,2.6,1.5Z"/>
    <path class="cls-30" d="M264.5,275.6l-14.8,2.6,1.5-5.3h0s0,0,0,0l-1.5,5.3c.9,3.1,4.2,5.2,7.5,4.7,2.1-.3,4.3-3,5.8-5,.8-1.3,1.5-2.3,1.5-2.3,0,0,0,0,0,0Z"/>
    <path class="cls-30" d="M264.5,275.6s-.7.9-1.5,2.3c.9-1.3,1.5-2.3,1.5-2.3,0,0,0,0,0,0Z"/>
    <path class="cls-30" d="M257.7,250.9h0s-.2,0-.4-.1c-.1.8-.6,3-1.6,5.9l-2,7.4c2.5.7,5.2.8,7.7.3,2.6-.5,5-1.6,6.9-3.3l-5.7-5.6c-2.9-2.4-4.6-4.4-4.8-4.7Z"/>
    <path class="cls-30" d="M261.8,266.2c-2.9.6-5.9.4-8.7-.4l-.7,2.4c3.2,1,6.7,1.1,10,.5,2.8-.5,5.4-1.7,7.7-3.2v-2.4c0,0-.6-.6-.6-.6-2.2,1.8-4.9,3.1-7.7,3.7Z"/>
    <path class="cls-30" d="M252,269.8l-.8,3c.7-.7,1.7-1.2,2.9-1.4,3.3-.6,10.4,4.1,10.4,4.1h0s0,0,0,0c0,0,2.8-4.8,5.8-6.8v-1.1c-2.2,1.3-4.7,2.3-7.2,2.7-3.6.7-7.4.5-11-.6Z"/>
    <path class="cls-30" d="M270.4,274.5v-5.7c-3.1,1.9-5.9,6.7-5.9,6.8h0s5.9-1.1,5.9-1.1Z"/>
    <path class="cls-30" d="M249.7,278.2l14.8-2.6c0,0-7.2-4.7-10.4-4.1-1.1.2-2.1.7-2.9,1.4h0s-1.5,5.3-1.5,5.3Z"/>
    <path class="cls-30" d="M257.8,250.7c0-.1,0-.3.1-.6l-.5.4s0,0,0,0h.3Z"/>
    <path class="cls-30" d="M269.2,240.1l-4,3.6c-3,3.9-6.3,6.4-7.2,7.1l12,3.1-.3-11.9c-.4-.4-.8-.9-1.2-1.3l.7-.6Z"/>
    <path class="cls-30" d="M273.5,254.8l-.9-.2c.7-2.4.7-4.9,0-7.4-.6-1.9-1.5-3.6-2.8-5.2l.3,11.9,3.5.9Z"/>
    <polygon class="cls-30" points="257.4 250.6 257.4 250.6 257.3 250.6 257.3 250.6 257.4 250.6"/>
    <path class="cls-30" d="M257.4,250.5s0,0,0,0h0c0,0,0,0,0,0Z"/>
    <path class="cls-30" d="M257.4,250.6l-4.4-4.3c-1.6-1.3-3.6-2.8-5.8-4-6.4-3.6-12.6-4.4-12.6-4.4,0,0,3.8,4.8,10.1,8.4,1.5.8,3,1.5,4.4,2.1l8.4,2.2h0Z"/>
    <path class="cls-30" d="M257.4,250.6l.4.3s0,0,0,0c0,0,0-.1-.3-.3h0Z"/>
    <path class="cls-30" d="M257.4,250.6h0c-.6-.8-2.2-2.5-4.5-4.3l4.4,4.3h0Z"/>
    <path class="cls-30" d="M257.3,250.6h0s0,0,0,0h0s0,0,0,0l-8.4-2.2c3.6,1.5,6.7,2.2,8.1,2.4.2-.1.3-.2.3-.2Z"/>
    <path class="cls-30" d="M257.4,250.6h0s0,.1,0,.3c.2,0,.4,0,.4,0l-.4-.3h0Z"/>
    <polygon class="cls-30" points="257.4 250.6 257.4 250.6 257.4 250.6 257.4 250.6"/>
    <polygon class="cls-30" points="257.4 250.6 257.4 250.6 257.4 250.6 257.4 250.6"/>
    <path class="cls-30" d="M257.4,250.6h0s0,0,0,0c0,0,0,0,0,0h0Z"/>
    <polygon class="cls-30" points="257.4 250.6 257.4 250.6 257.4 250.6 257.4 250.6"/>
    <rect class="cls-30" x="257.3" y="250.6" width="0" height="0" transform="translate(-92 167.3) rotate(-30.8)"/>
    <polygon class="cls-30" points="257.4 250.6 257.4 250.6 257.4 250.6 257.4 250.6"/>
    <path class="cls-30" d="M257.1,250.8l-4.6,4.1c-1.4,1.5-2.9,3.3-4.2,5.4-3.7,5.9-4.6,12-4.6,12,0,0,5.2-3.5,9-9.4,1.3-2.1,2.3-4.2,3-6.1l1.6-5.9c0,0-.1,0-.2,0Z"/>
    <path class="cls-30" d="M257,250.8c-.7.5-2.5,1.9-4.6,4.1l4.6-4.1s0,0,0,0Z"/>
    <path class="cls-30" d="M257.3,250.8l-1.6,5.9c1.1-2.8,1.5-5.1,1.6-5.9,0,0,0,0,0,0Z"/>
    <path class="cls-30" d="M257.3,250.6l-.3.2c0,0,.1,0,.2,0v-.3c0,0,0,0,0,0Z"/>
    <path class="cls-30" d="M257.3,250.6s-.1,0-.3.2c0,0,0,0,0,0l.3-.2h0Z"/>
    <path class="cls-30" d="M257.3,250.8s0,0,0,0c0-.2,0-.3,0-.3v.3Z"/>
    <path class="cls-30" d="M257.7,250.9s0,0,0,0l4.8,4.7c1.7,1.4,3.8,3,6.3,4.4.4.3.9.5,1.3.7v-5.7c-6.5-3.2-12.4-4.1-12.4-4.1Z"/>
    <path class="cls-30" d="M262.5,255.6l-4.8-4.7c.2.2,1.9,2.2,4.8,4.7Z"/>
    <path class="cls-30" d="M272.1,228.1s-1.1.8-2.7,2.2v6c2.1-4.6,2.7-8.2,2.7-8.2Z"/>
    <path class="cls-30" d="M267.1,240.9c1-1.5,1.8-3.1,2.4-4.6v-6c-2.1,1.8-4.8,4.6-7,8.1-3.1,4.9-4.3,9.8-4.7,11.7l7.3-6.5c.7-.9,1.3-1.8,2-2.8Z"/>
    <path class="cls-30" d="M257.8,250.7c0,.2,0,.2,0,.2,0,0,0,0,.3-.2h-.2Z"/>
    <path class="cls-30" d="M258,250.7c.9-.7,4.2-3.2,7.2-7.1l-7.3,6.5c0,.2,0,.4-.1.6h.2Z"/>
    <path class="cls-30" d="M240.3,233.9l-1.7-1.7-.3-.3-2-1.9h0s0,0,0,0c-.1-.4-.2-.7-.2-1.1-.4-.4-.8-.7-1.2-1.1-2.7-2.4-4.2-5.6-4.5-9.2-.4-3.5,1.1-6.8,4.3-8.6,3.3-1.9,7-2.7,10.8-3.3v-.6c-4.7,0-9.8.7-13.5,3.8-4.3,3.7-3.8,9.9-1.6,14.3.3.7.8,1.3,1.2,1.9.6,0,1,.2,1,.2l1.4,1.5c-.3,0-.6,0-.9,0,1.6,1.6,3.4,2.9,5.1,4.4,1,.8,2,1.7,2.9,2.5l-1-1s0,0,0,0Z"/>
    <path class="cls-30" d="M242.7,236.1s0,0,.2-.2c0,0-.1,0-.2.1,0,0,0,0,0,0Z"/>
    <path class="cls-30" d="M236.3,230h0s.7-.2.7-.2c-.3-.3-.6-.6-.9-.9,0,.4,0,.7.2,1.1h0Z"/>
    <polygon class="cls-30" points="238.7 232.3 238.6 232.2 240.3 233.9 240.3 233.9 240.3 233.9 238.7 232.3"/>
    <path class="cls-30" d="M241.5,234.1c-.4,0-.8,0-1.2-.2l1,1c.5.4.9.8,1.4,1.2,0,0,.1,0,.2-.1.1-.1.2-.2.2-.2-.5-.5-1.1-1.1-1.6-1.6Z"/>
    <polygon class="cls-30" points="236.3 230 238.3 231.9 238.6 232.2 236.3 230 236.3 230"/>
    <path class="cls-30" d="M237.1,229.8l-.7.2h0s2.2,2.2,2.2,2.2h0c0,0,1.6,1.7,1.6,1.7h0c.4.1.8.2,1.2.2-1.5-1.5-2.9-2.9-4.4-4.3Z"/>
    <path class="cls-30" d="M220.5,230.9s-1.9,3.7,1.4,3.8c3.3,0,5.3-1.8,5.6-3.4.3-1.4,3.2-3.3,5.8-3.4-.6-.5-1.1-1.1-1.5-1.7-2.4-.4-8.2-.6-11.2,4.7Z"/>
    <path class="cls-30" d="M232.7,226.4s-.4-.1-1-.2c.5.6,1,1.2,1.5,1.7.3,0,.6,0,.9,0l-1.4-1.5Z"/>
    <path class="cls-30" d="M267.1,184.4c-.8,0-1.7.5-2.5,1.3l-.2.6c.4,1.2.6,2.5,1.8,3,.8.4,1.6.9,2.4,1.3v-6.2c-.5-.1-1-.2-1.5-.1Z"/>
    <path class="cls-30" d="M265.9,209c0-2,1.2-3.7,3-4.7l-.2-7.8c-1.7,1-2.8,2.8-2.8,4.7s0,.5,0,.7c-.2,0-.5-.2-.7-.2-3-.7-6.1,1-7.1,3.8-.9,2.8.6,5.6,3.6,6.3.3,0,.5.1.8.1-.2.2-.4.4-.5.6-1.5,2-1.4,4.5.1,6.2.7.3,1.4.8,1.9,1.4,1.7.7,3.6.6,5.2-.2v-6.3c-2-.8-3.3-2.5-3.3-4.5Z"/>
    <path class="cls-30" d="M262.1,218.6c.3.4.7.7,1.1,1,.2.2.5.3.8.4-.5-.6-1.2-1.1-1.9-1.4Z"/>
  </g>
  <g>
    <path class="cls-26" d="M272.3,213.7c3.4.5,6-1.5,6-4.3s-2.7-5.6-6-6.1-2.1,0-3,.2l.2,9.3c.8.5,1.8.8,2.8.9Z"/>
    <path class="cls-26" d="M294.1,266.2c-2.9.1-5.2,2.4-5,5,.1,2.7,2.6,4.6,5.5,4.4,2.8-.2,5-2.5,4.9-5-.1-2.6-2.5-4.6-5.4-4.4Z"/>
    <polygon class="cls-26" points="285.7 244.4 285.7 244.4 285.7 244.4 285.7 244.4"/>
    <polygon class="cls-26" points="285.7 244.4 285.7 244.4 285.7 244.4 285.7 244.4"/>
    <path class="cls-26" d="M274.1,282.5c-.3-1-1.5-2.1-2.9-3.1l.2,9.6c2.3-1.6,3.4-4.2,2.6-6.6Z"/>
    <path class="cls-26" d="M281,271.7l-10,2.6v4.3c2,.5,3.9.8,5.2.5,3.6-1,5.7-4.3,4.8-7.4l-4.6-4.1s0,0,0,0h0s4.6,4.1,4.6,4.1Z"/>
    <path class="cls-26" d="M272.7,267.7c1.3-.3,2.6-.3,3.7,0h0s-2.7-2.3-2.7-2.3c-.9.7-1.8,1.4-2.9,2v1.2c.6-.4,1.2-.7,1.8-.8Z"/>
    <path class="cls-26" d="M272.7,267.7c-.6.1-1.2.4-1.8.8v5.8c.1,0,10.1-2.6,10.1-2.6l-4.6-4.1h0c-1.2-.3-2.5-.3-3.7,0Z"/>
    <path class="cls-26" d="M288.3,245.8c2.4,1.3,5.9,2.8,7.9,2.4,3.2-.6,5.1-3.6,4.2-6.5s-4.2-5-7.4-4.4c-2.1.3-4.3,3-5.8,4.9-.8,1.3-1.5,2.2-1.5,2.2,0,0,1.1.6,2.6,1.5Z"/>
    <rect class="cls-26" x="285.7" y="244.4" width="0" height="0" transform="translate(-79.4 334.1) rotate(-54.4)"/>
    <path class="cls-26" d="M285.7,244.4h0s.6-1,1.5-2.2c1.3-2.1,2.8-5.1,2.3-7-.8-2.7-3.6-4.7-6.6-4.8-.3.3-.7.6-1,.8l3.9,13.2Z"/>
    <path class="cls-26" d="M285.7,244.4s.7-.9,1.5-2.2c-.9,1.2-1.5,2.2-1.5,2.2h0Z"/>
    <path class="cls-26" d="M285.7,244.4l4.1,13.7-6.1-1.5s0,0,0,0l6.1,1.5c3.3-.8,5.3-3.8,4.4-6.8-.6-1.9-3.6-4-5.9-5.4-1.5-.8-2.6-1.5-2.6-1.5,0,0,0,0,0,0Z"/>
    <path class="cls-26" d="M285.7,244.4s1.1.7,2.6,1.5c-1.4-.9-2.6-1.5-2.6-1.5h0Z"/>
    <path class="cls-26" d="M279.2,255.5l-1-.2c.9-3.1.9-6.3,0-9.5-1-3.1-2.8-6.1-5.4-8.6l.8-.6-3,2.3c2.3,2.1,3.9,4.7,4.8,7.4.8,2.7.9,5.6,0,8.2l3.9,1Z"/>
    <path class="cls-26" d="M274.2,236.1s0,0,0,0c.5-.4.9-.8,1.4-1.2l-1.5,1.1Z"/>
    <path class="cls-26" d="M285.7,244.4h0s0,0,0,0c0,0-7.9-4-8.9-7.2-.2-.7-.3-1.3-.2-2-.6.5-1.3,1-1.9,1.4,0,0-.1-.1-.3-.3,2.7,2.6,4.6,5.8,5.6,9.1,1,3.4,1.1,6.9,0,10.3l3.6.9c-.8-.7-1.5-1.7-1.8-2.7-.9-3.1,3.8-9.4,3.8-9.5Z"/>
    <path class="cls-26" d="M276.6,235.2c0,.6,0,1.3.2,2,1,3.2,8.8,7.2,8.9,7.2l-3.9-13.2c-1.7,1.3-3.4,2.7-5.1,4Z"/>
    <path class="cls-26" d="M285.7,244.4s-4.8,6.3-3.8,9.5c.3,1.1,1,2,1.8,2.7l6.1,1.5-4.1-13.7Z"/>
    <path class="cls-26" d="M272.2,255.3c-.5-.3-1.1-.5-1.6-.8v5.8c6,2.7,11.3,3.6,12.9,3.8,0,0,.1-.2.2-.2-1-1.1-5.2-5.3-11.5-8.6Z"/>
    <path class="cls-26" d="M274.2,236.2s.1,0,.2.2c0,0-.1-.1-.2-.2,0,0,0,0,0,0Z"/>
    <path class="cls-26" d="M288.3,225.3c-4,1.3-6.6,4.4-9.5,7-1,.9-2.1,1.8-3.1,2.7l1.2-.9s0,0,0,0l4.7-3.6c.4,0,.9,0,1.3,0,.4-.3.9-.7,1.3-1,2.9-2.4,6.6-3.5,10.5-3.4,3.8,0,7.3,1.8,9.1,5.1,1.9,3.2,2.4,6.7,2.9,10.2h.6c.3-4.2-.2-9-3.3-12.8-3.7-4.6-10.6-4.8-15.6-3.2Z"/>
    <path class="cls-26" d="M276.9,234s0,0,0,0l4.7-3.6.2.8c.4-.3.7-.6,1-.8-.4,0-.9,0-1.3,0l-4.7,3.6Z"/>
    <path class="cls-26" d="M276.6,235.2c0-.4.1-.8.2-1.2l-1.2.9c-.5.4-.9.8-1.4,1.2,0,0,.1.1.2.2.1.1.3.3.3.3.6-.5,1.3-1,1.9-1.4Z"/>
    <path class="cls-26" d="M281.8,231.2l-.2-.8-4.7,3.6c-.1.4-.2.8-.2,1.2,1.8-1.3,3.5-2.6,5.1-4Z"/>
    <path class="cls-26" d="M279.3,192c-.5.4-.9.7-1.4,1.1,3.4-.4,6.3-1.4,9.1-2.6,1.6-.7,3.3-1.5,4.7-2.5,1.2-.8,2.2-1.9,3.2-2.9,2.8-2.6,3.1-5.6.9-9.7h-.6c.2.7.3,1.2.4,1.8.6,5.6-4.2,4.4-8.4,5.3-4.4,1.2-8.5,5.5-9.9,9.7.5-.3,1-.6,1.6-.9l.4.5Z"/>
    <path class="cls-26" d="M275.2,193.9c.2-.1.3-.3.5-.4-.4-3.4-2.7-6.7-6-9.3-.3-.2-.5-.4-.8-.5v6.2c2.1,1.6,3.9,3.2,5.9,4.6.1-.1.3-.3.4-.4Z"/>
    <path class="cls-26" d="M285.8,197.9c.9.2,1.7.6,2.5.8,2.6.5,5.4.4,7.3-.8.4-.3.7-.7.8-1.1l-.5-.4c-2.7.3-5.4-1.5-8.1-2.1-4.2-.9-8.2-.5-11.9.6-.4.4-.7.8-1,1.2,3.7.6,7.5,1,10.9,1.8Z"/>
    <path class="cls-26" d="M275.2,194.7c-.1,0-.3-.2-.4-.3-.4.5-.8.9-1.1,1.5.4.1.7.3,1,.5,0,0,.1-.2.2-.2-.1,0-.3,0-.4,0l-.2-.6c.5-.2,1.1-.4,1.7-.5.6-.6,1.2-1.2,1.9-1.8-.1,0-.2,0-.3,0l-.4-.5c0,0,0-.2.1-.3-.6.4-1.1.8-1.6,1.2,0,.3,0,.7,0,1l-.6.2Z"/>
    <path class="cls-26" d="M277.6,193.2c.1,0,.2,0,.3,0,.5-.4.9-.8,1.4-1.1l-.4-.5c-.6.2-1.1.5-1.6.9,0,0,0,.2-.1.3l.4.5Z"/>
    <path class="cls-26" d="M274.8,194.4c.1,0,.3.2.4.3l.6-.2c0-.3,0-.7,0-1-.2.1-.3.3-.5.4-.1.1-.3.3-.4.4Z"/>
    <path class="cls-26" d="M274.5,196c.1,0,.3,0,.4,0,.3-.4.7-.8,1-1.2-.6.2-1.1.3-1.7.5l.2.6Z"/>
    <path class="cls-26" d="M271.9,217.8c.2-.2.3-.4.4-.6.1.2.3.5.4.7,2,2.6,5.7,3.5,8.4,2.2,2.6-1.3,3.2-4.4,1.3-6.9-.2-.2-.3-.4-.5-.6.3,0,.5,0,.8,0,3-.4,4.6-3,3.7-5.8-1-2.8-4.2-4.8-7.3-4.4-.3,0-.5,0-.8.1,0-.2,0-.5,0-.7,0-2.1-1.5-4.2-3.6-5.3-.4.5-.8,1-1.1,1.6l-.6-.3c.2-.6.4-1.2.7-1.8-.4-.2-.9-.3-1.4-.4-1.2-.2-2.2-.1-3.2.2l.2,7.8c.9-.3,1.9-.4,3-.2,3.4.5,6,3.3,6,6.1s-2.7,4.8-6,4.3-1.9-.5-2.8-.9l.2,6.4c.8-.3,1.6-.7,2.2-1.3Z"/>
    <path class="cls-26" d="M273,197.6l.6.3c.3-.6.7-1.1,1.1-1.6-.3-.2-.7-.3-1-.5-.3.6-.6,1.1-.7,1.8Z"/>
    <path class="cls-26" d="M330.2,285.9c-.5.2-1,.4-1.4.5-4.9,1-5-2.8-6.8-6-2.1-3.2-7-6-11.1-6.8.4.4.8.7,1.1,1.1l-.4.4c-.4-.3-.9-.7-1.3-1,1.1,2.5,2.7,4.7,4.4,6.8,1,1.2,2.2,2.5,3.4,3.4,1,.8,2.3,1.5,3.4,2.2,3.1,1.9,5.8,1.9,8.9-.2l-.2-.4Z"/>
    <path class="cls-26" d="M309.4,272.6c3-.5,5.5-2.4,7.1-4.8.3-.5.5-1,.4-1.6,0-.6-.3-1.3-1.1-1.9,0,0-.5-.1-.5-.1-1.1.3-2.2.5-2.7,1.5-1.2,2.1-2.9,4.2-4.2,6.4.2,0,.3.2.5.3.2.1.3.2.5.3Z"/>
    <path class="cls-26" d="M307.4,280.7c0,.7-.2,1.4-.2,2.1,0,2.1.8,4.4,2.5,5.9.4.3.8.5,1.3.6l.3-.4c-.9-2.2.2-4.5.1-6.8,0-3.3-1.4-6.4-3.2-9.1-.4-.2-.9-.5-1.3-.7.2,2.8.7,5.7.6,8.5Z"/>
    <path class="cls-26" d="M310.5,273.6c0,0,.2,0,.3,0-.5-.4-.9-.8-1.5-1.1-.3,0-.6.1-.9.1,0,0-.3-.4-.3-.4,0-.1.1-.2.2-.3-.5-.3-1-.5-1.6-.7,0,.3-.1.5-.2.8,0,0,.2,0,.3.1,0-.1,0-.2,0-.3l.5-.2c.3.4.6.8.9,1.2.7.4,1.4.8,2.1,1.3,0,0,0-.1-.1-.2l.4-.3Z"/>
    <path class="cls-26" d="M311.9,274.8c-.3-.4-.7-.8-1.1-1.1,0,0-.2,0-.3,0l-.4.3c0,0,0,.2.1.2.5.3.9.6,1.3,1l.4-.4Z"/>
    <path class="cls-26" d="M308.5,272.7c.3,0,.6,0,.9-.1-.2-.1-.3-.2-.5-.3-.2,0-.3-.2-.5-.3,0,.1-.1.2-.2.3,0,0,.3.4.3.4Z"/>
    <path class="cls-26" d="M306.8,271.9c0,.1,0,.2,0,.3.5.2.9.5,1.3.7-.3-.4-.6-.8-.9-1.2l-.5.2Z"/>
    <path class="cls-26" d="M305,270.8c.6,0,1.2.2,1.8.4,0-.3.1-.7,0-1-.1-2.5-2.4-4.5-5.1-4.3-.2,0-.5,0-.7,0,0-.2.2-.4.2-.6.7-2.5-.8-5-3.5-5.8-2.7-.7-5.6.7-6.4,3.2,0,.2-.1.4-.1.6-.2-.1-.4-.3-.6-.4-2.2-1.3-5.2-1-7,.8.2.2.3.3.3.3,0,0-.2,0-.5,0,0,.1-.2.2-.3.3-1.7,2.3-1,5.3,1.6,6.7.2.1.4.2.7.3-.2.1-.4.2-.6.4-2.4,1.7-2.8,4.8-.9,6.9.7.8,1.7,1.3,2.7,1.5,0-.2.1-.3.2-.5l.5-.4c.4.3.7.6.9,1,1.1,0,2.3-.4,3.2-1.2.2-.1.4-.3.5-.5,0,.2.1.4.2.6,1,2.4,4,3.5,6.7,2.5,2.6-1,3.9-3.8,2.9-6.1,0-.2-.2-.4-.3-.6.2,0,.5,0,.7,0,2-.1,3.7-1.4,4.3-3.1-.6-.3-1.1-.5-1.7-.7v-.5ZM294.6,275.7c-2.9.2-5.4-1.8-5.5-4.4-.1-2.7,2.1-4.9,5-5,2.8-.1,5.2,1.9,5.4,4.4.1,2.6-2,4.8-4.9,5Z"/>
    <path class="cls-26" d="M283.7,263.9c0,0-.1.2-.2.2.3,0,.5,0,.5,0,0,0,0-.1-.3-.3Z"/>
    <path class="cls-26" d="M305,270.8v.5c.5.2,1,.5,1.6.7.1-.3.2-.5.2-.8-.6-.2-1.2-.4-1.8-.4Z"/>
    <path class="cls-26" d="M284.8,283.3c-1.6,2.1-3.5,4.1-4.6,6.6-.7,1.6-1,3.1-.9,5l.5.4c3.6-1.3,6-3.8,7.6-6.6,1.3-2.4,2.4-5.9.9-8.2-.5,0-1.1,0-1.6-.1-.4,1.1-1.1,2-1.9,3Z"/>
    <path class="cls-26" d="M286.8,279.7c0,.2-.1.4-.2.5.5.1,1.1.1,1.6.1-.2-.4-.5-.7-.9-1l-.5.4Z"/>
  </g>
  <path class="cls-7" d="M189.9,301.6c-3.1.7-6.2,1.9-9.2,3.7.6,2,1.2,4,1.8,6,2.4-1.4,4.9-2.2,7.4-2.2l76.2-2.9c1.7,0,3.3.3,5,.8,0-2.5,0-5-.1-7.5-1.5-.3-3.2-.6-4.9-.8l-76.2,2.9Z"/>
  <path class="cls-18" d="M280.4,303.6c-2.4-1.9-5.6-3.2-9.4-4,0,2.5,0,5,.1,7.5,3,.8,6.1,2.1,9.2,4.1l43.1,35.5.9-6.5-44-36.5Z"/>
  <path class="cls-14" d="M182.5,311.3c-.6-2-1.2-4-1.8-6-1.3.8-2.6,1.7-3.9,2.8l-45.2,56.6,3,5.9,42.2-55c1.9-1.8,3.7-3.2,5.6-4.3Z"/>
  <path class="cls-20" d="M181.6,305.1l-1.8.5c-.6-2-60.2-204.9-63.4-219-1.5-6.5-.5-16,1.1-24.5.3-.4.6-.8.9-1.2.1,0,.2,0,.3-.1.3-.2.7-.3,1-.4-1.8,8.8-3.1,19.1-1.5,25.8,3.1,13.8,61,210.9,63.3,218.6,0,.1,0,.2,0,.2Z"/>
  <polygon class="cls-10" points="306 376.4 276.1 408.1 195.7 410 163 387.6 150.6 402.3 195.7 433.2 276.1 431.3 317.6 387.2 306 376.4"/>
  <polygon class="cls-9" points="276.1 408.1 306 376.4 302.8 373.4 274.7 404.2 197 406.1 165.9 384.1 163 387.6 195.7 410 276.1 408.1"/>
  <polygon class="cls-2" points="302.7 373.4 274.7 404.2 197 406.1 165.9 384.1 195.7 348.6 276.1 348.6 302.7 373.4"/>
  <path class="cls-20" d="M272,299.8c-.3,0-.7-.2-1-.2-.3,0-.6-.1-.9-.2-.2-16.9-2.7-183.6-4.5-208.5-.9-12-6.7-22.6-12.6-30.4.9.6,1.9,1.2,2.8,1.9.5.4,1.1.8,1.6,1.1,5,7.5,9.3,16.8,10.1,27.3,1.9,25.2,4.4,194.9,4.6,209.1Z"/>
  <g>
    <path class="cls-12" d="M181.5,146.5c.3-.1.5-.2.8-.3l-.7-4.8c0,1.6,0,3.3,0,5.2Z"/>
    <polygon class="cls-12" points="162.1 149.7 162.1 149.7 162.1 149.7 162.1 149.7 162.1 149.7"/>
    <path class="cls-12" d="M180.9,135.4c.2.1.3.2.3.2,0,0,0,0,0-.2h-.3Z"/>
    <polygon class="cls-12" points="166.5 116.8 166.5 116.8 166.5 116.8 166.5 116.8 166.5 116.8"/>
    <path class="cls-12" d="M211.6,143.3c1,2.3,3.7,3.2,6,2.2,2.3-1,3.2-3.7,2.2-6-.6-1.3-1.7-2.2-3-2.5-1.1.1-2.2.3-3.2.4-2.1,1.1-2.9,3.7-1.9,5.8Z"/>
    <path class="cls-12" d="M213.8,137.3c0,0-.2.1-.3.1,1-.1,2.1-.3,3.2-.4-1-.2-2-.2-3,.3Z"/>
    <path class="cls-12" d="M179.1,100c2.4-1,3.6-3.8,2.6-6.2-1-2.4-3.8-3.6-6.2-2.6-2.4,1-3.6,3.8-2.6,6.2,1,2.4,3.8,3.6,6.2,2.6Z"/>
    <polygon class="cls-12" points="199.4 121.1 199.4 121.1 199.4 121.1 199.4 121.1"/>
    <path class="cls-12" d="M226.2,137.6c.6,0,1.1,0,1.7.1,0-.5.1-1,.2-1.5-.8,0-1.6,0-2.4,0,0,.1.1.2.2.3.1.3.2.7.3,1Z"/>
    <polygon class="cls-12" points="195.1 154 195.1 154 195.1 154 195.1 154 195.1 154 195.1 154"/>
    <path class="cls-12" d="M181.2,135.6s0,0,0,0c0,0,0,0,0,0h0Z"/>
    <path class="cls-32" d="M166.8,114.3c.2-2.3.3-5.5-.8-7-1.8-2.3-5.2-2.8-7.5-1-2.3,1.8-2.8,5.2-1,7.5,1.1,1.5,4.3,2.2,6.6,2.6,1.4.1,2.4.3,2.4.3,0,0,0-1.1.3-2.5Z"/>
    <polygon class="cls-32" points="166.5 116.8 166.5 116.8 166.5 116.8 166.5 116.8 166.5 116.8"/>
    <path class="cls-32" d="M166.5,116.8h0s-1.1,0-2.4-.3c-2.3-.2-5.6-.3-7,.8-2.1,1.6-2.7,4.4-1.6,6.6.4.2.8.3,1.1.5l9.9-7.6Z"/>
    <path class="cls-32" d="M166.5,116.8s-1-.2-2.4-.3c1.4.2,2.4.3,2.4.3h0Z"/>
    <path class="cls-32" d="M177,108.7l.7,5.2h0s0,0,0,0l-.7-5.2c-.5-.6-1-1.1-1.7-1.4-.2,0-.5,0-.7-.1-.5-.1-.9-.3-1.2-.5-1.3-.1-2.7.2-3.8,1.1-1.4,1.1-2.2,4.3-2.6,6.5-.1,1.4-.3,2.5-.3,2.5l10.5-8Z"/>
    <path class="cls-32" d="M166.5,116.8h0s.2-1.1.3-2.5c-.2,1.4-.3,2.5-.3,2.5h0Z"/>
    <path class="cls-32" d="M178.9,122.4c-2.2.3-4.3,1.2-6.1,2.6-1.8,1.4-3.2,3.2-4.1,5.2l7,3c2.5.8,4.3,1.7,5.1,2.1l-1.9-13Z"/>
    <path class="cls-32" d="M165.1,128.6l2.2.9c1-2.3,2.6-4.3,4.6-5.9,2-1.5,4.4-2.5,6.9-2.9l-.3-2.3c-2.9.4-5.6,1.6-8,3.4-2.3,1.8-4.2,4.1-5.3,6.8Z"/>
    <path class="cls-32" d="M166.5,116.8h0s0,0,0,0h0s-.6,7.2-2.9,9c-.5.4-1.1.6-1.6.8.6.3,1.3.6,1.9.9,0,0,0,.2-.1.3,1.3-2.8,3.2-5.3,5.7-7.2,2.5-2,5.6-3.2,8.7-3.7l-.4-2.9h0c-.3.9-.9,1.7-1.7,2.3-2.3,1.8-9.4.5-9.5.5Z"/>
    <path class="cls-32" d="M163.6,128s0,0,0,0c-.5-.2-1-.4-1.6-.6l1.5.7Z"/>
    <polygon class="cls-32" points="166.5 116.8 166.5 116.8 166.5 116.8 166.5 116.8"/>
    <path class="cls-32" d="M163.6,125.8c2.3-1.8,2.9-9,2.9-9l-9.9,7.6c1.8.7,3.5,1.5,5.3,2.3.6-.2,1.1-.4,1.6-.8Z"/>
    <path class="cls-32" d="M177,108.7l-10.5,8h0s0,0,0,0c0,0,7.1,1.3,9.5-.5.8-.6,1.4-1.4,1.7-2.3h0s-.7-5.2-.7-5.2Z"/>
    <polygon class="cls-32" points="166.5 116.8 166.5 116.8 166.5 116.8 166.5 116.8 166.5 116.8"/>
    <path class="cls-32" d="M159.7,149.4c-2.3-.2-5.5-.3-7,.8-2.3,1.8-2.8,5.2-1,7.5,1.8,2.3,5.2,2.8,7.5,1,1.5-1.1,2.2-4.3,2.6-6.6.1-1.4.3-2.4.3-2.4,0,0-1.1,0-2.5-.3Z"/>
    <polygon class="cls-32" points="162.1 149.7 162.1 149.7 162.1 149.7 162.1 149.7"/>
    <polygon class="cls-32" points="170.1 160.1 172.2 155.3 172.2 155.3 170.1 160.1 170.1 160.1"/>
    <path class="cls-5" d="M161.9,157.1c.1.8.4,1.6.8,2.1,1.8,2.4,5.2,2.8,7.5,1l-4.2-5.5c-1.5.9-2.9,1.7-4.1,2.4Z"/>
    <path class="cls-32" d="M162.1,149.7h0s0,0,0,0c0,0,0,1.1-.3,2.4-.1,1.5-.2,3.4,0,4.9,1.2-.7,2.6-1.5,4.1-2.4l-3.8-4.9Z"/>
    <path class="cls-32" d="M162.1,149.7s-.2,1-.3,2.4c.2-1.4.3-2.4.3-2.4h0Z"/>
    <path class="cls-32" d="M162.1,149.7s0,0,0,0l-8-10.4,5.2-.7h0s0,0,0,0l-5.2.7c-2.3,1.8-2.8,5.2-1,7.5,1.1,1.4,4.3,2.2,6.5,2.6,1.4.1,2.5.3,2.5.3h0Z"/>
    <path class="cls-32" d="M162.1,149.7h0s-1-.2-2.5-.3c1.4.2,2.5.3,2.5.3,0,0,0,0,0,0Z"/>
    <path class="cls-5" d="M171.1,152.6c.6.8,1,1.7,1.1,2.7h0s1.2-2.7,1.2-2.7c-.7-.3-1.4-.6-2-1-.3.2-.6.3-.9.5.2.2.5.4.6.6Z"/>
    <path class="cls-32" d="M165.9,146.8c-1.9-2.5-3.2-5.6-3.7-8.7l-3,.4c.9.3,1.7.9,2.3,1.7,1.8,2.3.5,9.4.5,9.5h0s6,.5,8.4,2.4c.3-.2.6-.3.9-.5-2.1-1.2-4-2.8-5.5-4.8Z"/>
    <path class="cls-5" d="M170.5,152c-1.6.9-3.2,1.8-4.6,2.6l4.2,5.5,2.1-4.8c0-1-.5-1.9-1.1-2.7-.2-.2-.4-.4-.6-.6Z"/>
    <path class="cls-32" d="M165.9,154.6c1.4-.8,3-1.7,4.6-2.6-2.4-1.9-8.3-2.3-8.4-2.3h0s3.8,5,3.8,5Z"/>
    <path class="cls-32" d="M154.1,139.2l8,10.4c0,0,1.3-7.1-.5-9.5-.6-.8-1.4-1.4-2.3-1.7h0l-5.2.7Z"/>
    <path class="cls-32" d="M169.1,144.4c-1.5-2-2.5-4.4-2.9-6.9l-2.3.3c.4,2.9,1.6,5.6,3.4,8,1.6,2,3.6,3.7,5.9,4.8.5-.3,1-.5,1.5-.8l.4-.9c-2.3-1-4.3-2.6-5.9-4.6Z"/>
    <path class="cls-5" d="M174,151.1l.5-1.2c-.5.3-1,.5-1.5.8.3.2.6.3.9.5Z"/>
    <path class="cls-32" d="M173.3,136.5l-5.5.8c.3,2.2,1.2,4.3,2.6,6.1,1.4,1.8,3.2,3.2,5.2,4.1l2.9-6.6c.9-2.6,1.8-4.4,2.2-5.1-1.1.3-3.9.8-7.3.8Z"/>
    <path class="cls-5" d="M194.7,156.5c-.2,2.3-.3,5.5.8,7,1.8,2.3,5.2,2.8,7.5,1,2.3-1.8,2.8-5.2,1-7.5-1.1-1.5-4.3-2.2-6.6-2.6-1.4-.1-2.4-.3-2.4-.3,0,0,0,1.1-.3,2.5Z"/>
    <polygon class="cls-5" points="195.1 154 195.1 154 195.1 154 195.1 154"/>
    <path class="cls-5" d="M200.7,144s0,0,0,0l4.8,2.1-10.4,8h0s0,0,0,0c0,0,1.1,0,2.4.3,2.3.2,5.6.3,7-.8,2.4-1.8,2.8-5.2,1-7.5l-4.8-2.1Z"/>
    <path class="cls-5" d="M195.1,154s1,.2,2.4.3c-1.4-.2-2.4-.3-2.4-.3h0Z"/>
    <path class="cls-5" d="M195.1,154l-10.5,8-.7-5.2h0s0,0,0,0l.7,5.2c1.8,2.3,5.2,2.8,7.5,1,1.4-1.1,2.2-4.3,2.6-6.5.1-1.4.3-2.5.3-2.5,0,0,0,0,0,0Z"/>
    <path class="cls-5" d="M195.1,154s-.2,1-.3,2.5c.2-1.4.3-2.5.3-2.5h0Z"/>
    <path class="cls-32" d="M181.2,135.6s-.1,0-.3,0c.2.7.6,2.8.8,5.6l.7,4.8c3.3-1.5,6.6-2.7,9.3-3.3.5-.7.9-1.4,1.2-2.2l-6.3-2.7c-3.1-1-5.1-2.2-5.3-2.3h0Z"/>
    <path class="cls-5" d="M182.7,148.4c2.2-.3,4.3-1.2,6.1-2.6,1.1-.9,2.1-1.9,2.8-3-2.8.6-6,1.8-9.3,3.3l.3,2.3Z"/>
    <path class="cls-5" d="M196.5,142.2l-2.2-.9c-1,2.3-2.6,4.3-4.6,5.9-2,1.5-4.4,2.5-6.9,2.9l.3,2.3c2.9-.4,5.6-1.6,8-3.4,2.3-1.8,4.2-4.1,5.3-6.8Z"/>
    <path class="cls-5" d="M195.1,154h0s0,0,0,0c0,0,.6-7.2,2.9-9,.8-.6,1.7-1,2.7-1.1h0s-2.7-1.2-2.7-1.2c-1.3,2.9-3.3,5.5-5.8,7.5-2.5,1.9-5.6,3.2-8.7,3.7l.4,3c.3-.9.9-1.7,1.7-2.3,2.3-1.8,9.4-.5,9.5-.5Z"/>
    <path class="cls-5" d="M195.1,154h0s10.4-8,10.4-8l-4.8-2.1c-.9.1-1.9.5-2.7,1.1-2.3,1.8-2.9,8.9-2.9,9Z"/>
    <path class="cls-5" d="M184.6,162.1l10.5-8c0,0-7.1-1.3-9.5.5-.8.6-1.4,1.4-1.7,2.3h0s.7,5.2.7,5.2Z"/>
    <polygon class="cls-32" points="199.4 121.1 199.4 121.1 199.4 121.1 199.4 121.1"/>
    <path class="cls-32" d="M201.9,121.4c2.3.2,5.5.3,7-.8,2.3-1.8,2.8-5.2,1-7.5-1.8-2.3-5.2-2.8-7.5-1-1.5,1.1-2.2,4.3-2.6,6.6-.1,1.4-.3,2.4-.3,2.4,0,0,1.1,0,2.5.3Z"/>
    <path class="cls-32" d="M199.4,121.1h0s0-1.1.3-2.4c.2-2.3.3-5.6-.8-7-1.6-2.1-4.4-2.7-6.6-1.6-.2.4-.3.8-.5,1.1l7.6,9.9Z"/>
    <path class="cls-32" d="M199.4,121.1s.2-1,.3-2.4c-.2,1.4-.3,2.4-.3,2.4h0Z"/>
    <path class="cls-32" d="M207.4,131.6l-5.2.7s0,0,0,0l5.2-.7c2.3-1.8,2.8-5.2,1-7.5-1.1-1.4-4.3-2.2-6.5-2.6-1.4-.1-2.5-.3-2.5-.3l8,10.5Z"/>
    <path class="cls-32" d="M199.4,121.1s1,.2,2.5.3c-1.4-.2-2.5-.3-2.5-.3h0Z"/>
    <path class="cls-32" d="M186.6,121.9c2.3,1,4.3,2.6,5.9,4.6,1.5,2,2.5,4.4,2.9,6.9l3.1-.5h-.8c-.4-2.8-1.6-5.5-3.4-7.8s-4.1-4.2-6.8-5.3l.3-.8-1.3,3Z"/>
    <path class="cls-32" d="M188.2,118.2s0,0,0,0c.2-.5.4-1,.5-1.5l-.6,1.5Z"/>
    <path class="cls-32" d="M199.4,121.1h0s-7.2-.6-9-2.9c-.4-.5-.6-1.1-.8-1.6-.3.6-.6,1.3-.9,1.9,0,0-.2,0-.3-.1,2.8,1.3,5.3,3.2,7.2,5.7,1.9,2.5,3.2,5.6,3.7,8.7l3-.4c-.9-.3-1.7-.9-2.3-1.7-1.8-2.3-.5-9.4-.5-9.5Z"/>
    <path class="cls-32" d="M190.4,118.2c1.8,2.3,9,2.9,9,2.9l-7.6-9.9c-.7,1.8-1.5,3.5-2.3,5.3.2.6.4,1.1.8,1.6Z"/>
    <path class="cls-32" d="M199.4,121.1s-1.3,7.1.5,9.5c.6.8,1.4,1.4,2.3,1.7l5.2-.7-8-10.5Z"/>
    <path class="cls-32" d="M194.6,133.4h-.8c-.3-2.1-1.2-4.2-2.6-6s-3.2-3.2-5.2-4.1l.3-.7-1.8,4.3c-1,4.3-2.6,7.6-3.1,8.4l13.2-1.9Z"/>
    <path class="cls-32" d="M181.1,135.3c0-.1,0-.3-.1-.5l-.2.5s0,0,0,0h.3Z"/>
    <path class="cls-32" d="M180.8,135.4s0,0,0,0h0c0,0,0,0,0,0Z"/>
    <polygon class="cls-32" points="180.8 135.4 180.8 135.4 180.8 135.4 180.8 135.4 180.8 135.4"/>
    <path class="cls-32" d="M175.7,133.2c-1.8-.6-3.9-1.1-6.2-1.5-6.6-.9-12.2.6-12.2.6,0,0,5.1,2.9,11.7,3.8,1.5.2,3,.3,4.4.3l7.5-1.1-5.1-2.2Z"/>
    <path class="cls-32" d="M180.8,135.4l.4.2s0,0,0,0c0,0-.1,0-.3-.2h0Z"/>
    <path class="cls-32" d="M180.8,135.4h0c-.8-.5-2.6-1.4-5.1-2.2l5.1,2.2h0Z"/>
    <path class="cls-32" d="M180.8,135.4h0s-7.5,1.1-7.5,1.1c3.4,0,6.2-.5,7.3-.8.1-.2.2-.3.2-.3Z"/>
    <path class="cls-32" d="M180.8,135.4h0s0,0,0,.3c.2,0,.3,0,.3,0l-.4-.2h0Z"/>
    <polygon class="cls-32" points="180.8 135.4 180.8 135.4 180.8 135.4 180.8 135.4"/>
    <path class="cls-32" d="M180.8,135.4h0s0,0,0,0c0,0,0,0,0,0h0Z"/>
    <polygon class="cls-32" points="180.8 135.4 180.8 135.4 180.8 135.4 180.8 135.4"/>
    <rect class="cls-32" x="180.8" y="135.4" width="0" height="0"/>
    <polygon class="cls-32" points="180.8 135.4 180.8 135.4 180.8 135.4 180.8 135.4"/>
    <path class="cls-5" d="M177.6,159.3s2.9-5.1,3.8-11.7c0-.4,0-.8.1-1.2-1.6.7-3.2,1.5-4.7,2.3-.5,5.9.8,10.6.8,10.6Z"/>
    <path class="cls-32" d="M181.6,141.3l-.8-5.6c0,0-.1,0-.2,0l-2.2,5.1c-.6,1.8-1.2,3.9-1.5,6.2,0,.6-.1,1.1-.2,1.7,1.6-.8,3.2-1.6,4.7-2.3.2-1.9.2-3.6,0-5.2Z"/>
    <path class="cls-32" d="M180.6,135.7c-.4.7-1.3,2.6-2.2,5.1l2.2-5.1s0,0,0,0Z"/>
    <path class="cls-32" d="M181.6,141.3c-.2-2.8-.6-4.9-.8-5.6,0,0,0,0,0,0l.8,5.6Z"/>
    <path class="cls-32" d="M180.8,135.4v.3c0,0,0,0,0,0v-.3s0,0,0,0Z"/>
    <path class="cls-32" d="M180.6,135.7s0,0,0,0v-.3c.1,0,0,.1,0,.3Z"/>
    <path class="cls-32" d="M180.8,135.7s0,0,0,0c0-.2,0-.2,0-.2v.3Z"/>
    <path class="cls-32" d="M193.4,134.9c-6.6-.9-12.2.6-12.2.6,0,0,0,0,0,0l5.3,2.3c1.8.6,3.9,1.2,6.3,1.5,5.6.7,10.5-.2,11.9-.5,0,0,0-.2,0-.3-1.2-.6-5.7-2.9-11.4-3.6Z"/>
    <path class="cls-32" d="M186.6,137.9l-5.3-2.3c.2.1,2.3,1.3,5.3,2.3Z"/>
    <path class="cls-32" d="M181.2,135.6s0,0,.1-.2h-.2c0,.2,0,.2,0,.2Z"/>
    <path class="cls-32" d="M185,123.9c.9-6.6-.6-12.2-.6-12.2,0,0-2.9,5.1-3.8,11.7-.7,5.2.1,9.8.5,11.5l3.4-8c.2-.9.4-1.9.5-3Z"/>
    <path class="cls-32" d="M181.3,135.3c.5-.9,2.1-4.1,3.1-8.4l-3.4,8c0,.2,0,.4.1.5h.2Z"/>
    <path class="cls-32" d="M153.4,123.7c-.3,0-.6.2-.8.3,2,.9,4.1,1.4,6.1,2.2,1.1.4,2.3.8,3.4,1.2l-1.2-.5s0,0,0,0l-2.1-.9h-.3c0-.1-2.4-1.2-2.4-1.2h0s0,0,0,0c-.2-.3-.4-.6-.6-.9-.5-.2-1-.4-1.4-.6-3.2-1.3-5.8-3.6-7.4-6.7-1.7-3-1.6-6.4.6-9.1,2.2-2.7,5.2-4.5,8.2-6.2l-.2-.5c-4.1,1.3-8.3,3.6-10.4,7.5-2.5,4.7.3,10.1,3.9,13.4.6.5,1.2.9,1.8,1.3.6-.1,1-.2,1-.2l1.8.9Z"/>
    <path class="cls-32" d="M163.7,127.9s0,0,0-.2c0,0,0,.1,0,.2,0,0,0,0,0,0Z"/>
    <path class="cls-32" d="M156,124.8h0s.6-.4.6-.4c-.4-.2-.8-.3-1.1-.5.2.3.3.6.6.9h0Z"/>
    <polygon class="cls-32" points="158.9 126 158.8 125.9 160.9 126.8 160.9 126.8 160.9 126.8 158.9 126"/>
    <polygon class="cls-32" points="156 124.8 158.4 125.8 158.8 125.9 156 124.8 156 124.8"/>
    <path class="cls-32" d="M161.9,126.6c-.3.1-.7.2-1.1.3l1.2.5c.5.2,1,.4,1.6.6,0,0,0-.1,0-.2,0-.1.1-.3.1-.3-.6-.3-1.3-.6-1.9-.9Z"/>
    <path class="cls-32" d="M156.6,124.3l-.6.4h0s2.7,1.2,2.7,1.2h.1s2,.9,2,.9h0c.4,0,.7-.1,1.1-.3-1.8-.8-3.5-1.5-5.3-2.3Z"/>
    <path class="cls-32" d="M188.3,118.3s.1,0,.2,0c0,0-.1,0-.2,0,0,0,0,0,0,0Z"/>
    <path class="cls-32" d="M188.8,116.7l.5-1.2s0,0,0,0l2.1-4.8c.3-.2.6-.4.9-.6.2-.5.4-1,.6-1.4,1.3-3.2,3.6-5.8,6.7-7.4,3-1.7,6.4-1.5,9.1.6,2.7,2.2,4.5,5.2,6.2,8.2,0,0,.5-.2.5-.2-1.3-4.1-3.6-8.3-7.5-10.4-4.7-2.5-10.1.3-13.4,3.9-2.5,2.8-3.2,6.5-4.5,9.8-.4,1.2-.8,2.3-1.2,3.5Z"/>
    <path class="cls-32" d="M189.3,115.5s0,0,0,0l2.1-4.8.4.6c.2-.4.3-.8.5-1.1-.3.2-.6.3-.9.6l-2.1,4.8Z"/>
    <path class="cls-32" d="M189.6,116.5c-.1-.3-.2-.7-.3-1.1l-.5,1.2c-.2.5-.4,1-.5,1.5,0,0,.1,0,.2,0,.1,0,.3.1.3.1.3-.6.6-1.3.9-1.9Z"/>
    <path class="cls-32" d="M191.9,111.2l-.4-.6-2.1,4.8c0,.4.1.7.3,1.1.8-1.8,1.5-3.5,2.3-5.3Z"/>
    <path class="cls-32" d="M152.6,124c-.7-.3-1.3-.6-2-1-2.2.5-7.5,2.3-8.3,8.3,0,0-.3,4.1,2.7,3,3-1.1,4.1-3.6,3.8-5.1-.3-1.3,1.6-4.1,3.8-5.1Z"/>
    <path class="cls-32" d="M153.4,123.7l-1.8-.9s-.4,0-1,.2c.6.4,1.3.7,2,1,.3-.1.6-.2.8-.3Z"/>
    <path class="cls-32" d="M176.2,78.4c-.2.5-.4,1.1-.5,1.6,2.1-2,3.8-4.3,5.4-6.7.9-1.5,1.8-3,2.4-4.6.5-1.4.9-2.9,1.2-4.3,1.1-3.9.2-6.8-2.9-9.3l-.4.4c.4.4.7.9,1,1.4,2.5,4.9-1.4,6.3-4.1,9.4-2.6,3.3-3.9,9.2-3.3,13.5.2-.5.5-1,.8-1.5l.5.2Z"/>
    <path class="cls-32" d="M174.3,81.5c-1.5-2.7-4.2-4.5-7.2-5.1-.6-.1-1.2-.1-1.8.2-.6.3-1.2.8-1.6,1.7,0,0,0,.5,0,.5.7,1,1.3,2,2.5,2.1,2.5.5,5.1,1.3,7.7,1.8,0-.2,0-.4.1-.6,0-.2.1-.4.2-.6Z"/>
    <path class="cls-32" d="M182.9,80.4c.7-.2,1.4-.3,2.1-.5,2.1-.8,4.1-2.3,5.1-4.4.2-.4.3-1,.2-1.5h-.5c-1.9,1.6-4.5,1.3-6.7,2.1-3.3,1.2-5.9,3.6-8,6.2-.1.5-.2,1-.3,1.5,2.7-1.2,5.4-2.7,8.1-3.5Z"/>
    <path class="cls-32" d="M174.7,84c0,0-.2,0-.3.1l-.4-.4c.3-.4.6-.8.9-1.2.2-.8.4-1.6.6-2.4,0,0-.1.1-.2.2l-.5-.3c0,0,0-.2,0-.3-.3.6-.5,1.2-.6,1.8.1.3.3.5.4.8,0,0-.3.4-.3.4-.1,0-.2,0-.4,0-.1.6-.2,1.2-.2,1.7.3,0,.6,0,.9,0,0-.1,0-.2,0-.3Z"/>
    <path class="cls-32" d="M175.4,80.3c0,0,.1-.1.2-.2.2-.5.3-1.1.5-1.6l-.5-.2c-.3.5-.5,1-.8,1.5,0,.1,0,.2,0,.3l.5.3Z"/>
    <path class="cls-32" d="M174.7,82.3c-.1-.3-.3-.5-.4-.8,0,.2-.1.4-.2.6,0,.2,0,.4-.1.6.1,0,.2,0,.4,0,0,0,.3-.4.3-.4Z"/>
    <path class="cls-32" d="M174.4,84.1c0,0,.2,0,.3-.1,0-.5.2-1,.3-1.5-.3.4-.6.8-.9,1.2l.4.4Z"/>
    <path class="cls-32" d="M180.3,103.7c0-.2,0-.4.1-.7.2.1.3.3.5.4,2.2,1.4,5.2.7,6.5-1.6,1.4-2.2.7-5.2-1.6-6.5-.2-.1-.4-.2-.6-.3.2-.1.4-.2.5-.4,2-1.7,2.2-4.7.5-6.7-1.7-2-4.7-2.2-6.7-.5-.2.1-.3.3-.5.5,0-.2-.1-.4-.2-.6-.7-1.8-2.5-2.9-4.3-2.9,0,.6-.1,1.2-.2,1.9h-.5c-.1-.6-.2-1.2-.1-1.8-.4,0-.7.1-1.1.3-2.4,1-3.6,3.8-2.6,6.2,0,.2.2.4.3.6-.2,0-.4,0-.7,0-2.6.2-4.6,2.5-4.4,5.1.2,2.6,2.5,4.6,5.1,4.4.2,0,.4,0,.7-.1,0,.2-.2.4-.2.6-.5,2.1.5,4.2,2.3,5.2.7,0,1.4.3,2,.6,2.3.2,4.4-1.3,5-3.6ZM172.9,97.5c-1-2.4.2-5.2,2.6-6.2,2.4-1,5.2.2,6.2,2.6,1,2.4-.2,5.2-2.6,6.2-2.4,1-5.2-.2-6.2-2.6Z"/>
    <path class="cls-32" d="M175.3,107.3c-.6-.3-1.3-.5-2-.6.4.2.8.4,1.2.5.2,0,.5,0,.7.1Z"/>
    <path class="cls-32" d="M174.5,86.1c0-.6,0-1.2.2-1.9-.3,0-.6,0-.9,0,0,.6,0,1.2.1,1.8h.5Z"/>
    <path class="cls-5" d="M253.8,143.5c-.4.4-.8.7-1.3,1-4.5,2.6-6-1-9-3.5-3.2-2.3-8.9-3.3-12.9-2.6.5.2,1,.4,1.4.7l-.2.5c-.5-.2-1-.3-1.6-.4,1.9,1.9,4.2,3.4,6.5,4.8,1.4.8,3,1.6,4.5,2.1,1.3.4,2.7.7,4.1,1,3.8.9,6.4-.1,8.7-3.2l-.4-.4Z"/>
    <path class="cls-5" d="M228.4,137.8c.2,0,.4.1.6.1.8-.5,1.5-1,2-1.7-1,0-2,0-2.9,0,0,.5-.2,1-.2,1.5.2,0,.4,0,.5,0Z"/>
    <path class="cls-32" d="M233.5,131c0-.6,0-1.1-.2-1.7-.3-.6-.8-1.1-1.7-1.4h-.5c-.9.8-1.8,1.4-1.9,2.5-.3,1.9-.8,3.9-1.1,5.9,1,0,1.9,0,2.9,0,1.3-1.5,2.2-3.3,2.5-5.3Z"/>
    <path class="cls-5" d="M230.2,146c.2.7.3,1.3.6,2,.8,1.9,2.4,3.8,4.4,4.6.4.2.9.2,1.4.1v-.5c-1.6-1.7-1.4-4.2-2.3-6.3-1.3-3-3.6-5.4-6.2-7.3-.5,0-1-.1-1.4-.2,1.2,2.5,2.7,5,3.7,7.5Z"/>
    <path class="cls-5" d="M230.3,138.5c0,0,.2,0,.3,0-.6-.2-1.1-.4-1.7-.5-.2.1-.5.3-.7.4l-.4-.3c0-.1,0-.2,0-.3-.5,0-1.1-.1-1.7-.1,0,.3,0,.5,0,.8,0,0,.2,0,.3,0,0,0,0-.2-.1-.3l.4-.3c.4.3.8.5,1.2.8.8.1,1.5.3,2.3.5,0,0-.1-.1-.2-.2l.2-.5Z"/>
    <path class="cls-5" d="M232.1,139.1c-.5-.3-.9-.5-1.4-.7,0,0-.2,0-.3,0l-.2.5c0,0,.1.1.2.2.5.1,1,.3,1.6.4l.2-.5Z"/>
    <path class="cls-5" d="M227.9,137.7c0,.1,0,.2,0,.3l.4.3c.3-.1.5-.3.7-.4-.2,0-.4-.1-.6-.1-.2,0-.4,0-.5,0Z"/>
    <path class="cls-5" d="M226.4,138.2c0,0,0,.2.1.3.5,0,1,.1,1.4.2-.4-.3-.8-.6-1.2-.8l-.4.3Z"/>
    <path class="cls-32" d="M213.8,137.3c1-.4,2-.5,3-.3,2.8-.3,5.8-.6,9-.7-1.1-2-3.7-2.9-5.8-1.9-.2,0-.4.2-.5.3,0-.2,0-.4,0-.6-.3-2.5-2.5-4.2-5-3.9-2.5.3-4.2,2.5-3.9,5,0,.2,0,.4.1.6-.2,0-.4-.1-.6-.2-2.2-.4-4.4.8-5.1,2.9.2.1.3.2.3.2,0,0-.1,0-.4,0,0,0,0,.2,0,.3,2.3-.5,5.3-1.1,8.9-1.7,0,0,.2-.1.3-.1Z"/>
    <path class="cls-5" d="M224.5,137.8c.6-.1,1.2-.2,1.7-.2,0-.3-.2-.7-.3-1,0-.1-.1-.2-.2-.3-3.2.1-6.2.4-9,.7,1.3.3,2.4,1.2,3,2.5,1,2.3,0,4.9-2.2,6-2.3,1-4.9,0-6-2.2-1-2.2-.1-4.7,1.9-5.8-3.5.5-6.5,1.1-8.9,1.7,0,0,0,0,0,.1-.5,2.4,1.1,4.8,3.6,5.3.2,0,.4,0,.6,0-.1.2-.2.3-.3.5-1.2,2.2-.4,4.9,1.7,6.1.8.5,1.8.6,2.7.5,0-.2,0-.3,0-.5l.3-.5c.4.2.8.4,1.1.6.9-.4,1.6-1,2.2-1.9.1-.2.2-.4.3-.6.1.2.2.3.4.5,1.7,1.8,4.5,1.9,6.4.2,1.8-1.7,1.9-4.5.2-6.4-.1-.2-.3-.3-.5-.4.2,0,.4-.1.6-.2,1.7-.8,2.6-2.5,2.6-4.2-.6,0-1.2,0-1.8,0v-.5Z"/>
    <path class="cls-32" d="M204.8,138.6c0,0,0,.2,0,.3.2,0,.4,0,.4,0,0,0-.1,0-.3-.2Z"/>
    <path class="cls-32" d="M224.5,137.8v.5c.7,0,1.2,0,1.8,0,0-.3,0-.5,0-.8-.6,0-1.2,0-1.7.2Z"/>
    <path class="cls-5" d="M212.4,154.8c-.5,2.3-1.3,4.3-1.2,6.8,0,1.5.3,2.9,1.1,4.4l.5.2c2.3-1.9,3.4-4.6,3.7-7.5.2-2.4-.2-5.7-2.2-7.3-.4.2-.9.3-1.3.4,0,1.1-.2,2-.4,3.1Z"/>
    <path class="cls-5" d="M212.8,151.2c0,.2,0,.3,0,.5.5,0,.9-.2,1.3-.4-.3-.2-.7-.5-1.1-.6l-.3.5Z"/>
  </g>
  <path class="cls-31" d="M257.7,506.9c0-2,.2-4,.4-6.2.9-9.1,2.3-22.9-12.9-58.4-18.7-43.7-12.1-72.4-12-72.7l1.8.4c0,.3-6.5,28.4,11.9,71.5,15.4,35.9,14,50,13,59.4-.2,2.2-.4,4.1-.4,6h-1.9Z"/>
  <path class="cls-33" d="M256.9,354.4c0,13.6-11.6,24.6-26,24.6s-26-11-26-24.6.2-4,.7-5.8h50.5c.5,1.9.7,3.8.7,5.8Z"/>
  <path class="cls-3" d="M256.9,353.3c0,11.1-9.5,20.1-21.2,20.1s-21.2-9-21.2-20.1.2-3.2.6-4.7h41.2c.4,1.5.6,3.1.6,4.7Z"/>
  <path class="cls-6" d="M195,434.8l-.5-.3-43.9-32.1,44.1-53.8h81.4c0,0,26,24.3,26,24.3h0c4.1,3.6,9.6,8.8,15.5,14.4l-42.4,45.7-80.2,1.9ZM299.6,375.5l-25-23.2h-78.2c0,0-27.2,32.3-27.2,32.3h0s-13.1,17-13.1,17l40,29.5,77.4-1.8,38.8-41.9-12.7-11.9h0Z"/>
  <path class="cls-31" d="M242.4,430h-2c.4,1.3.9,2.5,1.3,3.7h2c-.5-1.3-.9-2.5-1.3-3.7Z"/>
  <circle class="cls-23" cx="248.3" cy="447.3" r="9.8"/>
  <circle class="cls-4" cx="248.3" cy="447.3" r="8.1"/>
  <circle class="cls-23" cx="254.3" cy="472" r="13.2"/>
  <path class="cls-8" d="M296.3,601.2h-36.8c-7.5-9.3-15.4-18.1-17.9-33.5-1.4-8.5-1.1-19,1.9-32.7.7-3.5,1.7-7.2,2.8-11.1,3.4-10.2,2.9-20.2-2-29.9l28.2-1.5c6.2,9.7,7,19.8,3.4,30.2-10.5,50.8,5.7,63.6,20.5,78.4Z"/>
  <path class="cls-27" d="M293.4,601.2l-1.7-1.2c-14.2-14-28.8-28.5-18.7-77.5,3.7-10.6,2.3-20.7-3.5-29.7h2.9c6.2,9.5,7.2,19.3,3.3,30.5-9.8,47.4,3.9,61.5,18.1,75.5l2.4,2.4h-2.9Z"/>
  <ellipse class="cls-21" cx="251.1" cy="441.3" rx="2.8" ry="2.7"/>
  <ellipse class="cls-21" cx="246.6" cy="444.5" rx="3.8" ry="3.7"/>
  <ellipse class="cls-4" cx="254.3" cy="469.7" rx="10.2" ry="10.4"/>
  <ellipse class="cls-21" cx="251.2" cy="469.6" rx="2.8" ry="2" transform="translate(-238.8 261) rotate(-38.8)"/>
  <ellipse class="cls-21" cx="254.1" cy="464" rx="4.5" ry="5.4" transform="translate(-273.7 498.9) rotate(-65.1)"/>
  <path class="cls-28" d="M272.2,528.6l-2.4,18.8c-12.2,6-23.4,14.7-28.2,20.3-1.4-8.5-1.1-19,1.9-32.7,11.5-6.2,28.7-6.4,28.7-6.4Z"/>
</svg>