<?xml version="1.0" encoding="UTF-8"?><svg id="Layer_4" xmlns="http://www.w3.org/2000/svg" width="839" height="580" xmlns:xlink="http://www.w3.org/1999/xlink" viewBox="0 0 839 580"><defs><linearGradient id="linear-gradient" x1="627.4" y1="156.1" x2="762.2" y2="38.3" gradientUnits="userSpaceOnUse"><stop offset="0" stop-color="#f98c50"/><stop offset="1" stop-color="#fe4375"/></linearGradient><linearGradient id="linear-gradient-2" x1="601.7" y1="216.9" x2="744" y2="216.9" xlink:href="#linear-gradient"/></defs><path d="M338.1,155.2c-6.1,10.9-21.9,14-33.3,14.3-6.2.2-13.2-.5-18.9-3.1-1.9-.9-3.8-2.2-4.9-4.1-.5-.9-.8-1.9-.8-2.8-1.4-1.8-2.3-4-2.5-6.4-.2-3.1.2-6.2,1.5-8.5.8-1.4,1.8-2.6,3.2-3.2,5.9-2.4,12.9.2,19-1.6,8.8-2.6,6.5-11.6,6-18.8,0-.3,0-.5,0-.8-10.8,4-21.4,9.5-33.1,9.6-2.9,0-5.3-.5-7.4-1.3,1.3,10.7,5,19.8,9.3,29.6,2.6,6,5,16.5-3.5,19-6.5,1.9-16.7-1.1-21-6.2-2.6-3.1-3.6-7.1-4.9-10.9-1.6-4.7-3.8-9.1-5.1-13.9-2.7-9.8-2-21.2-1.2-31.3.8-10.8,4.1-20.8,7.6-31.1,1.8-5.1,3.5-10.3,5.2-15.4,1.5-4.3,2.4-9.8,5-13.6.6-.8,1.3-1.4,2.2-1.6,1.2-1.8,2.9-3.1,5.6-2.1,4.4,1.6,2.8,7.6,2.6,11.1-.9,11.7-1.8,23.5-2.3,35.3,6.2,1.5,12.5,2,19,1.4,4.4-.4,8.8-1.3,13-2.5,1.4-.4,2.9-1,4.3-1.4-2.1-9.8-2.4-23.9,9.6-25.9,12.2-2.1,18.2,10.8,19.4,20.6.1.9-.1,1.6-.5,2.2,2.3,9.4,2.4,19.2,2.7,28.9.1,3.7.2,7.4,1.1,11,.8,3.2,2.8,5.5,4.1,8.5,2.2,4.8,1.5,10.3-1,14.8Z"/><path d="M377.5,182.2c-2.1-1.4-4.4-2.6-6.3-3.5-3.1-1.4-6.3-2.3-9.6-2.8-.2,0-.4-.2-.7-.2-8.8-2.1-17.2,0-25.8,2.3-9.8,2.7-19.4,4.1-29.5,4.4-18.3.7-37-.7-54.9,4.1-7,1.9-16.5,4.8-21.2,10.8-4.2,5.4-3.7,13.6-1.3,19.7.2.6.5,1.1.7,1.6,2.2,2.2,4.3,4.1,6.4,5.7.6.1,1.2.3,1.7.3,7.1,1.3,14.5,0,21.5-1.5,6.9-1.5,13.9-3,20.6-5.4,3.4-1.2,6.6-2.8,9.8-4.4,1.2-.5,2.4-1,3.6-1.3.8-.2,2.8-1.2,1.5,0,2.2-2,4.9-1.6,6.7-.1,2.8.5,5.4,3,4.2,6.2-.4,1-.8,2-1.2,3-.3,1.9-.5,3.7-.8,5.6-1.2,8.9-3.4,18.2-3.2,27.2.1,6.6,2.5,12.8,8.8,15.7,6.1,2.8,16.3,4.2,22.3.7,6.3-3.6,7-10.4,3.6-16.3-2.2-3.8-4.6-6.9-5.9-11.1-1.2-4.3-1.5-8.8-1.5-13.3-.4-.7-.6-1.6-.5-2.6.1-1.2.2-2.5.4-3.7,0-2,.2-4,.7-5.9.4-1.4,1.1-2.5,2-3.4.9-1.5,2.1-3,3.6-4.2,5.8-4.7,14.1-5.2,21.1-6.6,7.5-1.5,16.2-2.7,22.9-6.7,6.6-4,4.2-9.8,0-14.2Z"/><path d="M471.3,121.4c-7.1,8.7-18.2,14.2-26.6,21.6,0,0-.1.1-.2.2,6.7,8.1,13.2,16.4,19.1,25,3.1,4.4,4.2,8.4,3.3,13.8-.8,5-2.4,10.8-5.3,15-1.9,2.8-5,4.2-8.1,2-3.7-2.7-3.3-9.3-4.2-13.3-2.3-10.4-6.7-25.6-16.4-31.5-4.7,4.9-9.2,10-13.5,15.3-4.2,5.2-8.2,11-9.5,17.7-.3,1.7-.5,3.5-.4,5.2,0,1.2.2,2.3.5,3.4,0,.1,0,.2,0,.3.7-.2,2.9-.2,3.3-.2,1.8,0,3.5-.1,5.3-.2,2.7,0,4.3,3,3,5.3-3.7,6.4-8.6,12.9-16.2,14.7-6.2,1.4-12.8-.7-16.2-6.4-4.1-7.1-4.3-17.1-3.8-25,.6-8.6,2.6-17.1,5.6-25.1,6.1-16.5,17.3-28.2,31-38.8,14.2-10.9,29.8-19.5,46.5-25.9.7-.2,1.2-.3,1.8-.2,1.1-1,2.2-1.8,4-1.8,1.1,0,2.5.6,3,1.7,3.9,8.5-.6,20.5-6.1,27.2Z"/><path d="M534,167.2c-1.3-6.9-2.4-13.8-2.3-20.9.1-7.1.7-14.3.8-21.4,0-8,.4-16.1-1.9-23.8-2.2-7.4-5.7-14.3-8.2-21.6-2.5-7.2-3.4-14.7-5.5-22-1.3-4.5-3.5-8.6-6.8-11.4.3-1.4-.3-3.2-1.9-3.6-4.5-1.3-8.9,2-10.8,6.5-2.4,5.9-.2,12.8.3,18.8,0,1.3.2,2.6.2,3.9.3,1.3.5,2.7.5,4.1,0,1.9,0,3.8.1,5.7,0,.3.3,2.8.3,3.4.1.8.5,3,.5,3.3.3,1.6.5,3.1.7,4.7,1.1,7.2,1.9,14.4,2.8,21.6.9,6.6,1.7,13.2,2.4,19.9,1.2,5.1,2.2,10.2,2.8,15.5,1.7,14,.8,29.4-1.5,43.3-.6,3.6-1.5,7.2-2.9,10.6-1.2,2.8-3.1,5.3-4,8.2-1.6,5.2,1.6,7.6,5.8,8.6,5,1.2,10.6,1.9,15.3-1.2,4.8-3.2,7.6-9.6,10.2-14.8,2.9-5.8,4.9-11.9,5.1-18.4.2-6.5-.9-12.8-2-19.1Z"/><path d="M567.7,147.1c-4.4,11.7-18.7,11.2-28.1,6.9-4.7-2.1-12.8-2.9-15.7-7.8-1.8-3.1-1-6.3,1.3-8.3,2.8-4.6,7-7.8,12-9.9,5.5-2.4,12.2-4.9,18.4-4,10.7,1.6,15.7,13.4,12.1,23Z"/><path d="M614.1,218.5c-2.2-4.3-7-11.9-11.7-13.7-5.3-2.1-11.2,6.6-14.6,9.6-5.3,4.6-12,7.6-16.9,12.6-5.6,1.7-11.3,3-16.6,4.6-5.2,1.6-10.5,3.3-15.8,4.6-5.8,1.4-11.9,1.2-17.9,1.3-3.3,0-6.7,0-10,.1-4.8,0-9.6-.1-14.3-.1-1.5,0-3.1.1-4.7,0,0-5.7-.7-11.4-2-17-.9-3.9-2.1-10.1-4.9-14.1-.7-1.5-1.6-2.9-2.8-4.3-.8-.9-1.8-1.2-2.8-1-1.5-1.8-5.2-1.9-6.4,1-5.3,13.2-12.2,27.2-10.7,41.9,1.1,10.6,6.9,21.4,17.2,25.4,6.4,2.5,13.9,2.1,20.7,2.2,8.3.1,16.7,0,25-.8,14.8-1.4,29.2-4.9,43.4-8.7,13.4-3.6,29-6.5,40.8-14.2,5.7-3.7,8.1-9.9,7.8-16.1.2-4.6-.7-9.1-2.8-13.3Z"/><path d="M155.6,385c-7.2-14.4-22.2-23.6-27.8-38.4-4.4-11.5-9.7-23.1-23.8-23.7-.3,0-.5,0-.7,0-.6-.1-1.2-.2-1.8-.2-1.3,0-2.7.2-4,.7-.2,0-.3.1-.5.2-1.3.2-2.6.6-4,1.2-7.7,1.9-11.7,10.5-11.6,18.5.2,8.4,1.3,13.5-3.7,20.8-3.6,5.2-7.5,10.1-10.3,15.9-9.9,20.2-12.6,50.8,1.7,69.8,14.6,19.3,47.8,12.4,64.5.2,18.3-13.3,32.9-42.9,21.9-64.9ZM120.4,409.8c-2.5,5.8-10.2,15.5-16.9,8.8-2.5-2.5-5.1-6.5-6-10-.9-3.8-.5-8.2-.3-12,.2-4,.7-8.1,1.9-11.9,1-2.9,2.3-6.5,5.4-7.4,1.7-1.2,4-1.4,5.9.6,2.9,2.9,4.3,6.9,6,10.5.7,1.7,1.6,3.4,2.6,4.9,1,1.6,2.2,3,2.8,4.8,1.3,3.7,0,8.3-1.4,11.8Z"/><path d="M261.4,334.5c-.9,17.8-.6,36.6-1.8,54.8-1.3,19.1-6.2,36.8-9.5,55.6-1,6.1-1.7,12.2-2.6,18.2-.7,4.7-1.8,9.4-5.3,12.9-7.6,7.6-18,3.5-21.7-5.6-1.7-4-1.8-9,1.5-12.3.5-.6,1.9-1.1,2.3-1.7.4-.8-.1-3.3-.2-4.1-.2-2.6-.7-5.2-1.2-7.7-2.1-11.6-4-22.4-1.5-34.1,2.5-11.8,5.7-23.3,7.5-35.2,1.2-7.9,2-15.9,2.4-23.9,0-1.3-.1-2.5-.2-3.8,0-.1,0-.3,0-.5-.8-5.8-2.3-11.6-4.5-17-2.3-5.5-5.9-9.9-8.6-15.1-2.7-5.1-3.4-11.7-1.9-17.3,1.6-5.8,6.5-7.5,11.9-7.9,5.8-.4,11.4,0,16.2,3.6,2.3,1.7,4.2,3.9,6.1,6.1.6.3,1.2.7,1.8,1.3.8.9,1.5,1.8,2.2,2.8.2.2.5.4.7.6,1.2,1,1.7,2.1,1.7,3.2,4.3,8.2,5.3,17.7,4.9,27.1Z"/><path d="M166.4,440.2c6.7,4.9,13.4,8.8,21.2,7.9,9.6-1.1,18.8-5.4,27.2-10,9.7-5.3,19.6-11.5,27-19.8,1.5-1.7,2.8-3.6,4-5.6,1.3-4.2,2-8.7,2.6-13.3.6-4.1,2.3-9.2.9-13.3-.5-1.5-1.5-2.8-2.7-3.8.6-1.7,1-3.4,1.3-5.3,1.4-8.7-11.8-12.4-13.3-3.7-3.1,18.5-23.9,23.4-38.8,28.9-8.6,3.2-16.8,7.2-25,11.5-7.4,3.9-13.1,9.4-9.4,18.3,1.2,2.8,2.9,5.5,4.9,8Z"/><path d="M158.2,383.6c2.3,2.1,4,3.8,7.2,4.2,3.6.5,7.2.9,10.7,1.9,3.1.9,6.4,1.9,9.7,1.7,3.5-.2,7.1-.3,10.6-.3,4.4,0,8.8.2,13.1-.8,2.8-.7,4.7-2.7,7.1-4.1,1.2-2,2.4-3.2,3.9-5.1,5.2-6.8,0-13.9-5.6-18.7-2.7-2.4-6-3.7-9.4-4.2-.6-.5-1.3-.9-2.3-.9-9.4-.1-18.7-.5-27.7,2.4-4.1,1.3-7.9,3.6-12.1,4.9-3,.9-6.4,1.8-8.6,4.2-2.2,2.4-3.1,5.6-1.7,8.7,1,2.4,3.1,4.3,5.1,6.2Z"/><path d="M326.2,505c-5.2,6.8-12,12.6-20.5,14.6-4.9,2.7-10,5.3-15,7.9-6.3,3.2-63.2,17.8-70.3,19.1-16.5,3-33.4,1.5-49.7,5.9-6.8,1.8-12.5,3.5-18.5-1.1-4.4-3.3-7.9-8.4-10.5-13.2-5.7-10.5-9.6-25.4-5.9-37.3,2-6.3,5.6-22.2,9.9-26.8,4.5-4.8,9.4-9.1,15.1-12.5,1-.6,1.9-.6,2.7-.3,1-.2,2,0,3,.7,9.7,7.7,11,22.1,3.3,31.7-2.1,2.6-7.5,19.6-.5,22.2,3.3,1.2,9.6-1.1,13.1-1.7,9.1-1.6,18.2-3.2,27.1-5.3,15.3-3.6,80.6-20.5,92.7-30.8,1.7-1.4,3.3-2.8,5.1-3.7,3-2.6,6-5.6,10.1-6,7.6-.8,10,6.8,10.9,12.8,1.2,8,3,17.2-2.2,24Z"/><path d="M468.4,347.1c0-5.8.6-11.8-5.3-14.8-13.9-7-28.1,5-41.1,8.2-7.1,1.7-14.5,2-21.7,3.4-4.6.9-19.8,8.6-21.4,1.2-1.5-7.2,3.1-16.9,4.9-23.8.8-3.1,1.7-6.4,2.2-9.9,5.6.1,11.2.1,16.9.2,7.3,0,14.7.1,22,.1,5.4,0,11.2.2,16.1-2.5,1.5-.9,2.8-1.8,3.9-2.9,3.8-1.8,6.8-4.7,8.2-9,2.4-7.8,1.9-20.4-5.2-25.7-3.9-2.9-8.8-3-13.4-2.6-6.8.6-13.5,1.6-20.2,2.5-13.3,1.9-26.7,3.8-40,5.7-12.3,1.7-25,.3-37.3,2.4-10.8,1.9-13.8,12.5-5.7,20,5.9,5.5,14.1,7.7,22.1,9-4.8,11.4-9.2,23-11.5,35.2-2.3,12.3-4.5,29.1,4.2,39.5,8.3,10,25.5,10.2,37.2,8.6,7.8-1.1,14.7-4.1,22.2-6.4,8.3-2.5,17.2-3.4,25.8-4.8,12.4-2,30.4-1.4,35.6-15.5,2.1-5.8,1.8-12.2,1.7-18.3Z"/><path d="M496.3,425.7c-7.6,5.1-17.9,7.1-26.6,9.3-16.3,4.2-32.8,7.2-49.4,10.2-9.2,1.7-18.5,3.2-27.9,4-7.4.6-14.9.2-22.3.9-8.7.8-14.9,5.4-23,7.9-6.8,2.1-14.6,1.9-21.6,1.3-12.9-1.2-27.2-7.6-29.9-21.7-2.8-14.4,8.4-22,20.7-25.1,16.1-4.2,32.9-5.8,49.5-6.4,28.6-1,57.5,1.1,86-1.7.8-.7,1.9-1.2,3.3-1.2,2.3,0,4.5,0,6.8,0,2.2-.3,4.4-.7,6.6-1.1,1.7-.3,3.2.2,4.3,1,4.3,0,8.6,0,12.8,0,6.1,0,16-2.3,18.4,5.5,2,6.6-2.4,13.6-7.7,17.1Z"/><path d="M400.9,564.9c9.6,2.5,19.2,4.7,28.9,6.4,7.4.6,14.9.7,22.3.2,6.3-1.3,12.4-3,18.4-5.1,2.6-1.3,5.1-2.6,7.6-4,0,0,0,0,0,0,1.4-2.3,2.7-4.6,3.9-7,2.1-6,3.7-12.1,4.8-18.4.4-3.9.6-7.8.8-11.8-1.7-5.3-4-10.4-7.6-14.9-4.5-5.7-9.6-9.9-17.4-11.2-7.9-1.3-15.5-4.6-23.2-7-1.1-.3-2-1-4.1-2.1,2.9-1.3,4.8-1.9,6.5-2.9,2.5-1.6,5.9-3.1,7.1-5.5.2-.4.4-.8.7-1.1.8-.4,1.5-.8,2.2-1.4,4.9-4,5.6-12.2,2.9-17.6-2.2-4.5-6.2-5.7-10.6-5.9-.6-.4-1.3-.7-2-.9-.7-.1-1.5-.3-2.3-.3-.6-.3-1.4-.5-2.1-.5-8.3,0-17-1.7-24.7.6-16.5,4.9-29.7,15.1-37.1,31.4-8.2,18.1-6.8,36.4-.2,54.4,0,0,14,21.7,25.3,24.5ZM410.6,522.6c-1.3-.3-2.6-.5-3.8-1-5.6-2.3-6.4-5.8-2.3-10.3,6.6-7.2,14.8-11.9,23.6-14.6,6.3,5.2,12.2,10,18.4,15.2-1.7,1.7-2.5,2.9-3.5,3.5-10.1,5.3-20.5,9.7-32.4,7.2Z"/><path d="M616.6,344.9c-1.4,3.4-4.5,5.4-8.1,6.7-.5,1.2-1.6,2.1-3.4,2.4-3.9.6-8.5,1.8-12.4,1.1-2.9-.5-4.9-2.4-7.1-4.2-6.2-5.2-12.9-10.6-16.8-17.8-6.5-12.1-1.4-27.7,12.5-31.2,7.1-1.8,15.9-1.5,22.1,2.8,6,4.2,8.9,11.1,10.9,17.9,1.9,6.6,5.2,15.7,2.3,22.3Z"/><path d="M620.2,386.4c-3.3,3.3-8.4,3.3-12.8,3.5-5.6.3-11.1,0-16.4-1.7-4.4-1.5-8.3-2.7-12.5-3.4-3.9-.1-7.7-.2-11.6-.3-3.7,0-6.6,0-10,1.6-2.9,1.4-5.8,2.9-8.6,4.4-5,2.6-9.5,6.9-14.8,8.6-4.6,1.5-10.1,1.8-14.8.7-8.4-1.9-13.5-9.7-13.2-18.1.4-9.4,7.8-16.8,16-20.3,9.9-4.3,21.5-4.7,32.1-4.9,11.9-.2,23.8,0,35.7,0,9.5,0,20.1.9,27.8,7,6.2,5,9.6,16.4,3.2,22.7Z"/><path d="M640.5,398.2c-4.3-7.8-15.4-11.7-23.6-13.3-5.6-1.1-12.4-2.3-18.8-2-1.6-1.7-4.3-2.3-6.4-.2-.6.6-1.2,1.2-1.9,1.8-.8.3-1.6.7-2.3,1.1-1.5.8-2.1,2.1-2.2,3.4-5.8,5.6-11.8,11.1-18.3,15.9-7.3,5.2-13.3,10.4-15.7,19.4-4.6,17.5,2.3,37.5,21.3,41.8,18.4,4.1,39.3-6.9,52.5-19,6.6-6.1,12-13.8,14.8-22.3,1.4-4.3,2-8.8,2.1-13.3.1-4.2.6-9.5-1.5-13.3ZM609.1,422.9c-2.4,1.1-5.6.9-8.1,1.8-2.4.9-4.6,2.3-7,3.3-1.1.5-3.6,1.6-4.8,1.2,0,0,0,0,0,0,0,0,.2-.2.3-1,.2-2.3,2.7-5.5,4-7.4,3.5-4.9,8.1-8.6,13.4-11.3,0,0,0,0,.1,0,5.6,1.5,8.3,10.6,2.2,13.4Z"/><path d="M662.5,483.2c-1.2,9.2-10.8,12.2-18.4,14.6-10.7,3.4-21.5,6.6-32.1,10.3-10.5,3.8-20.1,9.3-30.4,13.5-9.5,3.9-20.1,4.8-30.2,2.6-8.7-1.9-14.8-7.2-15.1-16.5-.3-9.2,2.3-15.5,10.8-19.4,9.8-4.5,20.3-5.9,29.6-11.5,5.2-3.1,11.2-6.9,15.6-11.7-.4-1.3,0-2.8,1.3-4.1,1.2-1.1,2.3-2.2,3.4-3.5.4-1.2.8-2.5,1-3.9.4-3.4,3.7-4.8,6.2-4.2,1.4-1.4,3-2.7,4.8-3.7,4.2-2.5,11.8-4.6,15.4,0,4.1,5.3-.4,13.6-3.9,17.9-2.6,3.1-5.7,5.7-8.1,9-.5.6-.9,1.3-1.3,2,9.5-1.4,19.2-2.1,28.9-1.9,7.6.2,24.1-1.3,22.5,10.5Z"/><path d="M700.4,448.1c.3-4.7.8-9.4,1.4-14,1.8-13.7,3.6-27.4,4.6-41.2,1-14.4.5-28.7,1.3-43.1.5-10.1,1.5-20.2,2.9-30.2-.5-1.4-1-2.8-1.8-4-3.9-6.5-10.3-10.8-16.7-12-5.4-1-13.7-.2-15.3,7.7,0,0,0,.2,0,.2-5.8,14.5-6.4,30.7-6.5,46.5,0,19,0,38,0,57,0,19.1,0,38.1,0,57.2,0,15.5.2,31.7,4.4,46.5,1.9,6.5,4.6,14.7,9.1,19.1,4.3,4.2,9.4,1.5,10.5-4.8.7-3.6.4-7.7.3-11.4,0-5-.3-9.9-.6-14.9,0-.7,0-1.4,0-2.2,1.1-14.5,2.3-29,3.4-43.5,1-4.4,2.1-8.8,3.2-13.1Z"/><path d="M742.2,8.1s-12.3,10.3-22.8,26.5c0,0,0,0,0,0,0,0,0,0,0,0-15.9-10.9-31.2-15.7-31.2-15.7,0,0-7.4,14.3-11,33.2-18.9-4-34.9-2.6-34.9-2.6,0,0-1.4,16,2.6,34.9,0,0,0,0,0,0-19,3.5-33.2,11-33.2,11,0,0,4.9,15.3,15.7,31.2,0,0,0,0,0,0-16.2,10.5-26.5,22.8-26.5,22.8,0,0,31.6,37.6,70.6,37.6s29.5-5.8,41.1-12.9c-27.5,15.7-58.1,7-91.7-24.7,0,0,5.1-6.1,14-12.9,2.9-2.2,6.3-4.5,10-6.7,5-3,10.8-5.7,17-7.6,2.5-.8,5.1-1.5,7.8-2,7.7-1.5,16.2-1.7,25.1,0,0,0,0,0,0,0l2.3.5s0,0,0,0c0,0,0,0,0,0,14,3.4,29.2,11.9,44.8,28.4-2-2.3-21.6-24.4-48.2-33.6-1.3-.4-2.6-.9-3.9-1.2-5.8-1.7-12-2.7-18.3-2.7s-3.9,0-5.8.3c-2.4-5.4-4.3-11.4-5.7-18-.8-3.6-1.5-7.4-2-11.4-.8-5.9-1.3-12.3-1.5-19,0,0,8-.7,19.1.8h0c3.7.5,7.7,1.3,11.8,2.3,0,0,0,0,0,0,0,0,0,0,0,0,5.6,1.5,11.6,3.6,17.4,6.7,2.3,1.2,4.7,2.6,6.9,4.1,17.3,11.7,31.8,33.1,30.5,71.8,0,0,4.2-49-23.3-76.6-1.4-1.4-2.8-2.7-4.3-3.9,2.1-5.5,5-11.1,8.6-16.7,2-3.1,4.2-6.3,6.6-9.5,3.6-4.8,7.8-9.6,12.4-14.5,0,0,68.3,57.1.1,121.1,2.3-2,37.5-32.8,37.5-70.5s-37.6-70.6-37.6-70.6ZM638.8,120s0,0,0,0c0,0,0,0,0,0-3-5.2-5.9-10.9-8.6-17,0,0,7.1-3.7,17.9-6.6,0,0,0,0,0,0h0c2,5.9,4.5,11.7,7.9,17.2-6.1,1.5-11.8,3.7-17.2,6.3ZM689.9,55.6s0,0,0,0c1.5-5.8,3.5-11.8,5.9-18.1,0,0,7.6,2.4,17.3,8,0,0,0,0,0,0-2.8,5.5-5.1,11.5-6.6,17.8-5.3-3.2-11-5.7-16.6-7.7Z" fill="url(#linear-gradient)"/><path d="M743.1,152c1.5,7.6,1,15.4-.1,23-4.5,27.9-21.8,52.4-43.3,70-4.9,4.1-10.9,8.3-16.3,11.9-5.9,3.7-12.6,7.5-18.9,10.7-7.3,3.4-15.2,7.2-22.9,9.7-12.9,4-26.4,5.9-39.8,3.3,0,0-.2-.9-.2-.9,6.9-6,14.4-10.2,22.2-14.3,7.3-3.8,15.1-7.1,22.7-10.1,15.1-6.6,29.6-14.2,42.8-23.7,26.4-18.8,48.5-46.7,52.8-79.6,0,0,.9,0,.9,0h0Z" fill="url(#linear-gradient-2)"/></svg>