<?xml version="1.0" encoding="UTF-8"?><svg id="Layer_4" xmlns="http://www.w3.org/2000/svg" viewBox="0 0 48 48"><defs><style>.cls-1{fill:#fff;}</style></defs><path class="cls-1" d="M17.64,16.56c-.21,0-.42.08-.58.24l-.26.26c-.32.32-.32.84,0,1.15l12.99,12.99c.16.16.37.24.58.24s.42-.08.58-.24l.26-.26c.32-.32.32-.84,0-1.15l-12.99-12.99c-.16-.16-.37-.24-.58-.24h0Z"/><path class="cls-1" d="M30.36,16.56c-.21,0-.42.08-.58.24l-12.99,12.99c-.32.32-.32.84,0,1.15l.26.26c.16.16.37.24.58.24s.42-.08.58-.24l12.99-12.99c.32-.32.32-.84,0-1.15l-.26-.26c-.16-.16-.37-.24-.58-.24h0Z"/><path class="cls-1" d="M24,6c9.93,0,18,8.07,18,18s-8.07,18-18,18S6,33.93,6,24,14.07,6,24,6M24,4C12.95,4,4,12.95,4,24s8.95,20,20,20,20-8.95,20-20S35.05,4,24,4h0Z"/></svg>