<?xml version="1.0" encoding="utf-8"?>
<!-- Generator: Adobe Illustrator 24.3.0, SVG Export Plug-In . SVG Version: 6.00 Build 0)  -->
<svg version="1.1" id="레이어_1" xmlns="http://www.w3.org/2000/svg" xmlns:xlink="http://www.w3.org/1999/xlink" x="0px"
	 y="0px" viewBox="0 0 314 40" style="enable-background:new 0 0 314 40;" xml:space="preserve">
<style type="text/css">
	.st0{fill:url(#SVGID_1_);}
	.st1{display:none;fill:#B9B53D;}
	.st2{fill:url(#SVGID_2_);}
	.st3{display:none;fill:url(#SVGID_3_);}
	.st4{fill:url(#SVGID_4_);}
	.st5{display:none;fill:url(#SVGID_5_);}
</style>
<linearGradient id="SVGID_1_" gradientUnits="userSpaceOnUse" x1="248.0759" y1="20.2417" x2="313.9765" y2="20.2417">
	<stop  offset="0" style="stop-color:#5B3722"/>
	<stop  offset="1" style="stop-color:#412210"/>
</linearGradient>
<path class="st0" d="M276.9,12.3h-3.9l0.2-5.6h2.4V2.4h-21.3v4.3h2.4l0.2,5.6h-3.9v4.3h23.8V12.3z M267.5,12.3h-4.8l-0.2-5.6h5.1
	L267.5,12.3z M291.2,29.6h15.5v10.7h5.3l0.4-3.9v-7.6c0-0.5,0-0.9,0-1.2c0-0.3,0-0.5,0-0.8l0-0.3c0-0.2,0-0.4,0.1-0.5
	c0-0.1,0-0.2,0-0.3l0-0.1c0-0.2,0-0.3,0-0.3v-0.2h-21.4V29.6z M304,0.2L302.9,2l2.4,1.5c0.5,0.3,1,0.8,1.4,1.3
	c0.4,0.5,0.6,1.1,0.6,1.6v1.3h-5.1c0.1-0.3,0.2-0.7,0.2-1c0.1-0.4,0.2-0.9,0.2-1.4c0-0.4-0.1-0.7-0.3-0.8c-0.2-0.1-0.4-0.2-0.7-0.2
	h-16.9v4.3h10.3c-0.3,1.4-0.8,2.7-1.6,4c-0.9,1.4-1.9,2.7-3.1,3.8c-1.2,1.2-2.5,2.3-3.9,3.2c-1.4,0.9-2.7,1.7-4,2.3l-0.3,0.1
	l2.9,2.8l0.1,0c1.5-0.6,3-1.3,4.5-2.2c1.5-0.9,2.9-1.8,4.2-2.9c1.3-1.1,2.5-2.3,3.6-3.6c1.1-1.3,2-2.6,2.8-4h6.9v3.1h-7.7v4.5h7.7v4
	h5.5V6.2c0-0.5,0-1,0.1-1.5c0.1-0.5,0.2-1,0.3-1.4c0.1-0.4,0.2-0.7,0.3-1c0.1-0.3,0.2-0.4,0.2-0.5l0.1-0.3L304,0.2z M248.1,23.1
	h13.7v2.8h-7.6v1.9l0.1,0.1c0.3,0.2,0.5,0.3,0.6,0.4c0.1,0.1,0.3,0.3,0.4,0.6c0.1,0.2,0.2,0.6,0.2,1v8.2c0,0.7,0.2,1.2,0.6,1.5
	c0.4,0.3,0.8,0.5,1.4,0.5h15.9c0.6,0,1.1-0.2,1.5-0.5c0.3-0.4,0.5-0.9,0.5-1.5v-8.5c0-0.4,0-0.7,0-1.1c0-0.2,0-0.4,0-0.6l0-0.5
	c0-0.3,0.1-0.6,0.1-0.8l0-0.1c0-0.3,0.1-0.3,0.1-0.4v-0.2h-7.3v-2.8h13.7v-4.3h-34V23.1z M269.5,30.1v5.5h-8v-5.5H269.5z"/>
<path class="st1" d="M173.8,6.2c0-0.5,0-1,0.1-1.5c0.1-0.5,0.2-1,0.3-1.4c0.1-0.4,0.2-0.8,0.3-1c0.1-0.3,0.2-0.4,0.2-0.5l0.1-0.3
	l-10.2-1.3L163.6,2l2.7,1.6c0.5,0.3,1,0.7,1.4,1.2c0.4,0.5,0.5,1,0.5,1.6v29h5l0.6-5.5V16.5h6.1V12h-6.1V6.2z M162.6,11.3
	c0.9-1.7,1.6-3.5,1.9-5.3c0-0.3-0.1-0.6-0.3-0.8c-0.2-0.2-0.4-0.3-0.6-0.3h-17.4v4.4h10.2c-0.4,1.4-1,2.7-1.9,4
	c-1,1.4-2.1,2.8-3.4,4c-1.3,1.2-2.6,2.4-4.1,3.4c-1.4,1-2.8,1.9-4.1,2.5l-0.3,0.2l3.3,2.8l0.1-0.1c1.8-0.9,3.6-1.9,5.4-3.2
	c1.8-1.2,3.5-2.5,5.1-4l6.8,6.9l4.5-4.7l-8.3-5.2C160.7,14.4,161.8,12.9,162.6,11.3z M220.2,17.2c0.9,0.7,1.9,1.2,3.1,1.6
	c1.2,0.4,2.3,0.6,3.6,0.6c1.2,0,2.4-0.2,3.5-0.6c1.2-0.4,2.2-0.9,3.1-1.6c0.9-0.7,1.6-1.6,2.2-2.6c0.6-1,0.8-2.2,0.8-3.4
	c0-1.3-0.3-2.4-0.8-3.4c-0.5-1-1.3-1.9-2.2-2.7c-0.9-0.7-1.9-1.3-3.1-1.7c-1.1-0.4-2.3-0.6-3.6-0.6c-1.3,0-2.5,0.2-3.6,0.6
	c-1.2,0.4-2.2,1-3.1,1.7c-0.9,0.8-1.6,1.6-2.1,2.7c-0.5,1-0.8,2.2-0.8,3.4c0,1.3,0.3,2.4,0.8,3.4C218.5,15.7,219.2,16.5,220.2,17.2z
	 M224.1,8.3c0.7-0.8,1.6-1.2,2.7-1.2c1.1,0,1.9,0.4,2.6,1.2c0.7,0.8,1,1.7,1,2.8c0,1.1-0.4,2-1,2.8c-0.7,0.8-1.6,1.2-2.7,1.2
	c-1.1,0-2-0.4-2.7-1.2c-0.7-0.8-1-1.8-1-2.8C223.1,10.1,223.5,9.1,224.1,8.3z M234.8,2l2.5,1.6c0.5,0.4,1,0.8,1.3,1.3
	c0.4,0.5,0.5,1,0.5,1.5v15.2c-1.2,0.2-2.4,0.3-3.4,0.4c-1.2,0.1-2.5,0.2-3.7,0.3c-1.1,0.1-2.3,0.1-3.5,0.1c-1,0-2,0-2.9,0h-10.5v4.9
	h6.9c1.4,0,2.7,0,4.1-0.1c1.4,0,2.9-0.1,4.4-0.2c1.5-0.1,3-0.2,4.5-0.4c1.3-0.1,2.6-0.3,4.1-0.5v9.2h5l0.6-5.5V6.2
	c0-0.5,0-1,0.1-1.5c0.1-0.6,0.2-1,0.3-1.4c0.1-0.4,0.2-0.8,0.3-1c0.1-0.2,0.1-0.4,0.2-0.5l0.1-0.3l-10-1.3L234.8,2z M197,29.2
	c0-0.3,0-0.6,0-0.9c0-0.3,0-0.6,0.1-0.8c0-0.2,0-0.3,0.1-0.5l0-0.2c0-0.1,0-0.2,0-0.3v-0.2l-7.2-0.6l-0.9,2.1l0.2,0.1
	c0.4,0.1,0.7,0.3,1,0.4c0.2,0.1,0.4,0.3,0.6,0.6c0.2,0.3,0.3,0.6,0.3,1.1v7.4c0,0.7,0.2,1.2,0.6,1.5c0.4,0.3,0.9,0.5,1.4,0.5h18.4
	V35H197V29.2z M194.6,21.1c1.2-0.5,2.3-1.2,3.2-2.1h7.1v11.2h5.1l0.4-4.4V6.2c0-0.5,0-1,0.1-1.5c0.1-0.5,0.2-1,0.3-1.4
	c0.1-0.4,0.2-0.7,0.3-1c0.1-0.2,0.1-0.3,0.1-0.4c0-0.1,0.1-0.1,0.1-0.2l0.1-0.3l-9.9-1.3L200.4,2l2.5,1.5c0.5,0.3,1,0.8,1.4,1.3
	c0.4,0.5,0.6,1.1,0.6,1.6v0.1h-7.1c-0.9-0.9-1.9-1.6-3.2-2.1c-1.3-0.5-2.6-0.8-4-0.8c-1.4,0-2.7,0.2-3.9,0.7
	c-1.2,0.5-2.2,1.1-3.1,1.9c-0.9,0.8-1.6,1.8-2.2,2.9c-0.5,1.1-0.8,2.4-0.8,3.7c0,1.3,0.3,2.6,0.8,3.7c0.5,1.1,1.3,2.1,2.2,2.9
	c0.9,0.8,2,1.4,3.2,1.9c1.2,0.4,2.5,0.7,3.8,0.7C192,21.9,193.4,21.6,194.6,21.1z M204.9,10.8v3.8h-4.7c0.1-0.3,0.1-0.5,0.1-0.8
	c0-0.4,0.1-0.7,0.1-1.1c0-0.3,0-0.7-0.1-1.1c0-0.2-0.1-0.5-0.1-0.8H204.9z M187.7,15.8c-0.4-0.4-0.6-0.9-0.8-1.5
	c-0.2-0.6-0.3-1.2-0.3-1.7c0-0.5,0.1-1.1,0.3-1.7c0.2-0.6,0.5-1.1,0.8-1.5c0.3-0.5,0.7-0.8,1.3-1.1c0.5-0.3,1.1-0.4,1.7-0.4
	c0.6,0,1.2,0.1,1.6,0.4c0.5,0.3,0.9,0.7,1.3,1.1c0.4,0.4,0.6,0.9,0.8,1.5c0.2,0.6,0.3,1.1,0.3,1.7c0,0.6-0.1,1.1-0.3,1.7
	c-0.2,0.6-0.5,1.1-0.8,1.5c-0.4,0.5-0.8,0.8-1.3,1.1c-0.5,0.3-1,0.4-1.6,0.4c-0.6,0-1.2-0.1-1.7-0.4C188.4,16.7,188,16.3,187.7,15.8
	z"/>
<linearGradient id="SVGID_2_" gradientUnits="userSpaceOnUse" x1="142.5569" y1="19.7935" x2="245.8533" y2="19.7935">
	<stop  offset="0" style="stop-color:#688828"/>
	<stop  offset="0.5287" style="stop-color:#4C6F21"/>
	<stop  offset="1" style="stop-color:#375C1B"/>
</linearGradient>
<path class="st2" d="M173.8,6.2c0-0.5,0-1,0.1-1.5c0.1-0.5,0.2-1,0.3-1.4c0.1-0.4,0.2-0.8,0.3-1c0.1-0.3,0.2-0.4,0.2-0.5l0.1-0.3
	l-10.2-1.3L163.6,2l2.7,1.6c0.5,0.3,1,0.7,1.4,1.2c0.4,0.5,0.5,1,0.5,1.6v29h5l0.6-5.5V16.5h6.1V12h-6.1V6.2z M162.6,11.3
	c0.9-1.7,1.6-3.5,1.9-5.3c0-0.3-0.1-0.6-0.3-0.8c-0.2-0.2-0.4-0.3-0.6-0.3h-17.4v4.4h10.2c-0.4,1.4-1,2.7-1.9,4
	c-1,1.4-2.1,2.8-3.4,4c-1.3,1.2-2.6,2.4-4.1,3.4c-1.4,1-2.8,1.9-4.1,2.5l-0.3,0.2l3.3,2.8l0.1-0.1c1.8-0.9,3.6-1.9,5.4-3.2
	c1.8-1.2,3.5-2.5,5.1-4l6.8,6.9l4.5-4.7l-8.3-5.2C160.7,14.4,161.8,12.9,162.6,11.3z M220.2,17.2c0.9,0.7,1.9,1.2,3.1,1.6
	c1.2,0.4,2.3,0.6,3.6,0.6c1.2,0,2.4-0.2,3.5-0.6c1.2-0.4,2.2-0.9,3.1-1.6c0.9-0.7,1.6-1.6,2.2-2.6c0.6-1,0.8-2.2,0.8-3.4
	c0-1.3-0.3-2.4-0.8-3.4c-0.5-1-1.3-1.9-2.2-2.7c-0.9-0.7-1.9-1.3-3.1-1.7c-1.1-0.4-2.3-0.6-3.6-0.6c-1.3,0-2.5,0.2-3.6,0.6
	c-1.2,0.4-2.2,1-3.1,1.7c-0.9,0.8-1.6,1.6-2.1,2.7c-0.5,1-0.8,2.2-0.8,3.4c0,1.3,0.3,2.4,0.8,3.4C218.5,15.7,219.2,16.5,220.2,17.2z
	 M224.1,8.3c0.7-0.8,1.6-1.2,2.7-1.2c1.1,0,1.9,0.4,2.6,1.2c0.7,0.8,1,1.7,1,2.8c0,1.1-0.4,2-1,2.8c-0.7,0.8-1.6,1.2-2.7,1.2
	c-1.1,0-2-0.4-2.7-1.2c-0.7-0.8-1-1.8-1-2.8C223.1,10.1,223.5,9.1,224.1,8.3z M234.8,2l2.5,1.6c0.5,0.4,1,0.8,1.3,1.3
	c0.4,0.5,0.5,1,0.5,1.5v15.2c-1.2,0.2-2.4,0.3-3.4,0.4c-1.2,0.1-2.5,0.2-3.7,0.3c-1.1,0.1-2.3,0.1-3.5,0.1c-1,0-2,0-2.9,0h-10.5v4.9
	h6.9c1.4,0,2.7,0,4.1-0.1c1.4,0,2.9-0.1,4.4-0.2c1.5-0.1,3-0.2,4.5-0.4c1.3-0.1,2.6-0.3,4.1-0.5v9.2h5l0.6-5.5V6.2
	c0-0.5,0-1,0.1-1.5c0.1-0.6,0.2-1,0.3-1.4c0.1-0.4,0.2-0.8,0.3-1c0.1-0.2,0.1-0.4,0.2-0.5l0.1-0.3l-10-1.3L234.8,2z M197,29.2
	c0-0.3,0-0.6,0-0.9c0-0.3,0-0.6,0.1-0.8c0-0.2,0-0.3,0.1-0.5l0-0.2c0-0.1,0-0.2,0-0.3v-0.2l-7.2-0.6l-0.9,2.1l0.2,0.1
	c0.4,0.1,0.7,0.3,1,0.4c0.2,0.1,0.4,0.3,0.6,0.6c0.2,0.3,0.3,0.6,0.3,1.1v7.4c0,0.7,0.2,1.2,0.6,1.5c0.4,0.3,0.9,0.5,1.4,0.5h18.4
	V35H197V29.2z M194.6,21.1c1.2-0.5,2.3-1.2,3.2-2.1h7.1v11.2h5.1l0.4-4.4V6.2c0-0.5,0-1,0.1-1.5c0.1-0.5,0.2-1,0.3-1.4
	c0.1-0.4,0.2-0.7,0.3-1c0.1-0.2,0.1-0.3,0.1-0.4c0-0.1,0.1-0.1,0.1-0.2l0.1-0.3l-9.9-1.3L200.4,2l2.5,1.5c0.5,0.3,1,0.8,1.4,1.3
	c0.4,0.5,0.6,1.1,0.6,1.6v0.1h-7.1c-0.9-0.9-1.9-1.6-3.2-2.1c-1.3-0.5-2.6-0.8-4-0.8c-1.4,0-2.7,0.2-3.9,0.7
	c-1.2,0.5-2.2,1.1-3.1,1.9c-0.9,0.8-1.6,1.8-2.2,2.9c-0.5,1.1-0.8,2.4-0.8,3.7c0,1.3,0.3,2.6,0.8,3.7c0.5,1.1,1.3,2.1,2.2,2.9
	c0.9,0.8,2,1.4,3.2,1.9c1.2,0.4,2.5,0.7,3.8,0.7C192,21.9,193.4,21.6,194.6,21.1z M204.9,10.8v3.8h-4.7c0.1-0.3,0.1-0.5,0.1-0.8
	c0-0.4,0.1-0.7,0.1-1.1c0-0.3,0-0.7-0.1-1.1c0-0.2-0.1-0.5-0.1-0.8H204.9z M187.7,15.8c-0.4-0.4-0.6-0.9-0.8-1.5
	c-0.2-0.6-0.3-1.2-0.3-1.7c0-0.5,0.1-1.1,0.3-1.7c0.2-0.6,0.5-1.1,0.8-1.5c0.3-0.5,0.7-0.8,1.3-1.1c0.5-0.3,1.1-0.4,1.7-0.4
	c0.6,0,1.2,0.1,1.6,0.4c0.5,0.3,0.9,0.7,1.3,1.1c0.4,0.4,0.6,0.9,0.8,1.5c0.2,0.6,0.3,1.1,0.3,1.7c0,0.6-0.1,1.1-0.3,1.7
	c-0.2,0.6-0.5,1.1-0.8,1.5c-0.4,0.5-0.8,0.8-1.3,1.1c-0.5,0.3-1,0.4-1.6,0.4c-0.6,0-1.2-0.1-1.7-0.4C188.4,16.7,188,16.3,187.7,15.8
	z"/>
<linearGradient id="SVGID_3_" gradientUnits="userSpaceOnUse" x1="248.0759" y1="20.2405" x2="313.9765" y2="20.2405">
	<stop  offset="0" style="stop-color:#FFFFFF"/>
	<stop  offset="1" style="stop-color:#B08E65"/>
</linearGradient>
<path class="st3" d="M276.9,12.3h-3.9l0.2-5.6h2.4V2.4h-21.3v4.3h2.4l0.2,5.6h-3.9v4.3h23.8V12.3z M267.5,12.3h-4.8l-0.2-5.6h5.1
	L267.5,12.3z M291.2,29.6h15.5v10.7h5.3l0.4-3.9v-7.6c0-0.5,0-0.9,0-1.2c0-0.3,0-0.5,0-0.8l0-0.3c0-0.2,0-0.4,0.1-0.5
	c0-0.1,0-0.2,0-0.3l0-0.1c0-0.2,0-0.3,0-0.3v-0.2h-21.4V29.6z M304,0.2L302.9,2l2.4,1.5c0.5,0.3,1,0.8,1.4,1.3
	c0.4,0.5,0.6,1.1,0.6,1.6v1.3h-5.1c0.1-0.3,0.2-0.7,0.2-1c0.1-0.4,0.2-0.9,0.2-1.4c0-0.4-0.1-0.7-0.3-0.8c-0.2-0.1-0.4-0.2-0.7-0.2
	h-16.9v4.3h10.3c-0.3,1.4-0.8,2.7-1.6,4c-0.9,1.4-1.9,2.7-3.1,3.8c-1.2,1.2-2.5,2.3-3.9,3.2c-1.4,0.9-2.7,1.7-4,2.3l-0.3,0.1
	l2.9,2.8l0.1,0c1.5-0.6,3-1.3,4.5-2.2c1.5-0.9,2.9-1.8,4.2-2.9c1.3-1.1,2.5-2.3,3.6-3.6c1.1-1.3,2-2.6,2.8-4h6.9v3.1h-7.7v4.5h7.7v4
	h5.5V6.2c0-0.5,0-1,0.1-1.5c0.1-0.5,0.2-1,0.3-1.4c0.1-0.4,0.2-0.7,0.3-1c0.1-0.3,0.2-0.4,0.2-0.5l0.1-0.3L304,0.2z M248.1,23.1
	h13.7v2.8h-7.6v1.9l0.1,0.1c0.3,0.2,0.5,0.3,0.6,0.4c0.1,0.1,0.3,0.3,0.4,0.6c0.1,0.2,0.2,0.6,0.2,1v8.2c0,0.7,0.2,1.2,0.6,1.5
	c0.4,0.3,0.8,0.5,1.4,0.5h15.9c0.6,0,1.1-0.2,1.5-0.5c0.3-0.4,0.5-0.9,0.5-1.5v-8.5c0-0.4,0-0.7,0-1.1c0-0.2,0-0.4,0-0.6l0-0.5
	c0-0.3,0.1-0.6,0.1-0.8l0-0.1c0-0.3,0.1-0.3,0.1-0.4v-0.2h-7.3v-2.8h13.7v-4.3h-34V23.1z M269.5,30.1v5.5h-8v-5.5H269.5z"/>
<linearGradient id="SVGID_4_" gradientUnits="userSpaceOnUse" x1="0.4375" y1="19.2091" x2="135.7444" y2="19.2091">
	<stop  offset="0" style="stop-color:#5B8A46"/>
	<stop  offset="1" style="stop-color:#1D350F"/>
</linearGradient>
<path class="st4" d="M75.3,2.8l-2.9,13.9C67.7,5.2,56.4,3.2,52,2.9c-0.6,0-1.2-0.1-1.8-0.1l-7.6,35H51l4.7-21.7h0.7
	c3.1,0,6.8,2.1,9.3,5.2c2,2.5,4.2,6.8,2.8,12.9l-0.8,3.7H76l7.6-35H75.3z M42.5,17.4c-0.2-0.3-0.6-0.4-1-0.4H25.1l-4.7,6.8h12.5
	l-0.3,1.1c-1,3.2-3.5,5.3-6.5,5.3h-8.4c-2.2,0-4.2-0.9-5.4-2.5c-1.3-1.6-1.8-3.8-1.3-6.1l0.6-2.8c1-4.5,5.5-8.2,10-8.2h21
	c1.1,0,2.1-0.9,2.4-2l1-4.7l0.7-3.3C44.3,2,41,2.8,38.2,2.8H21.9c-5.1,0-9.8,1.6-13.5,4.8c-3.5,2.9-6,7-6.9,11.5l-0.6,2.8
	c-1,4.6-0.3,8.6,2,11.5c2.3,2.9,6.2,4.4,11.1,4.4h11.1c8.8,0,14.5-4.9,16.5-14.1l1.1-5.2C42.8,18.1,42.7,17.7,42.5,17.4z
	 M121.8,18.4l-4.3,19.4h8.4l5.4-25c-2.5,2.1-5.3,3.8-8.5,5.1C122.5,18.1,122.2,18.2,121.8,18.4z M110.8,20.1
	C118.5,8.6,130,4.4,135.7,3h-5.3c-10.4,0.7-16.5,3.5-21.7,12.4l-1.1,1.9l-0.4-2.2C105.6,6.9,96.1,3,87.7,2.8l-7.6,35h8.4l4.8-22
	l0.9,0.3c6.4,1.9,8,7.1,5.6,18l-0.8,3.7h8.4l1.4-6.6c1.9-8.8,5.9-12.1,13.7-15.6c7.5-3.4,11.5-8.5,13.2-11.1
	C119.4,9.9,110.8,20.1,110.8,20.1z"/>
<linearGradient id="SVGID_5_" gradientUnits="userSpaceOnUse" x1="0.4375" y1="19.2091" x2="135.7444" y2="19.2091">
	<stop  offset="0" style="stop-color:#FFFFFF"/>
	<stop  offset="1" style="stop-color:#365311"/>
</linearGradient>
<path class="st5" d="M75.3,2.8l-2.9,13.9C67.7,5.2,56.4,3.2,52,2.9c-0.6,0-1.2-0.1-1.8-0.1l-7.6,35H51l4.7-21.7h0.7
	c3.1,0,6.8,2.1,9.3,5.2c2,2.5,4.2,6.8,2.8,12.9l-0.8,3.7H76l7.6-35H75.3z M42.5,17.4c-0.2-0.3-0.6-0.4-1-0.4H25.1l-4.7,6.8h12.5
	l-0.3,1.1c-1,3.2-3.5,5.3-6.5,5.3h-8.4c-2.2,0-4.2-0.9-5.4-2.5c-1.3-1.6-1.8-3.8-1.3-6.1l0.6-2.8c1-4.5,5.5-8.2,10-8.2h21
	c1.1,0,2.1-0.9,2.4-2l1-4.7l0.7-3.3C44.3,2,41,2.8,38.2,2.8H21.9c-5.1,0-9.8,1.6-13.5,4.8c-3.5,2.9-6,7-6.9,11.5l-0.6,2.8
	c-1,4.6-0.3,8.6,2,11.5c2.3,2.9,6.2,4.4,11.1,4.4h11.1c8.8,0,14.5-4.9,16.5-14.1l1.1-5.2C42.8,18.1,42.7,17.7,42.5,17.4z
	 M121.8,18.4l-4.3,19.4h8.4l5.4-25c-2.5,2.1-5.3,3.8-8.5,5.1C122.5,18.1,122.2,18.2,121.8,18.4z M110.8,20.1
	C118.5,8.6,130,4.4,135.7,3h-5.3c-10.4,0.7-16.5,3.5-21.7,12.4l-1.1,1.9l-0.4-2.2C105.6,6.9,96.1,3,87.7,2.8l-7.6,35h8.4l4.8-22
	l0.9,0.3c6.4,1.9,8,7.1,5.6,18l-0.8,3.7h8.4l1.4-6.6c1.9-8.8,5.9-12.1,13.7-15.6c7.5-3.4,11.5-8.5,13.2-11.1
	C119.4,9.9,110.8,20.1,110.8,20.1z"/>
</svg>
