<?xml version="1.0" encoding="UTF-8"?><svg id="Layer_1" xmlns="http://www.w3.org/2000/svg" width="250" height="250" viewBox="0 0 250 250"><path d="M23.5,125.7c8.7,0,16.3,6.2,20.3,15.3s5,5.8,8.8,5.8h.2c5.3,0,9.6-4.3,9.6-9.6V62.4h74.9c5.3,0,9.6-4.3,9.6-9.6v-.2c0-3.8-2.3-7.2-5.8-8.8-9.1-4-15.3-11.6-15.3-20.3,0-13,13.6-23.5,30.5-23.5,16.8,0,30.5,10.5,30.5,23.5,0,8.7-6.2,16.3-15.3,20.3s-5.8,5-5.8,8.8v.2c0,5.3,4.3,9.6,9.6,9.6h74.9v168.9c0,10.4-8.4,18.8-18.8,18.8H62.4v-74.9c0-5.3-4.3-9.6-9.6-9.6h-.2c-3.8,0-7.2,2.3-8.8,5.8-4,9.1-11.6,15.3-20.3,15.3-13,0-23.5-13.6-23.5-30.5s10.5-30.5,23.5-30.5Z" fill="#9cb9c9"/></svg>