<?xml version="1.0" encoding="utf-8"?>
<!-- Generator: Adobe Illustrator 28.2.0, SVG Export Plug-In . SVG Version: 6.00 Build 0)  -->
<svg version="1.1" xmlns="http://www.w3.org/2000/svg" xmlns:xlink="http://www.w3.org/1999/xlink" x="0px" y="0px"
	 viewBox="0 0 110 36" style="enable-background:new 0 0 110 36;" xml:space="preserve">
<style type="text/css">
	.st0{display:none;}
	.st1{display:inline;opacity:0.27;fill:#ED1C24;}
	.st2{display:inline;opacity:0.27;fill:#1F1FEA;}
	.st3{display:inline;}
	.st4{opacity:0.27;fill:#ED1C24;enable-background:new    ;}
	.st5{display:inline;fill:#231F20;}
	.st6{fill:#EFEFEF;}
	.st7{fill:#000111;}
</style>
<g id="Layer_2" class="st0">
	<rect class="st1" width="20" height="36"/>
	<rect x="30" class="st2" width="20" height="36"/>
	<rect x="60" class="st1" width="20" height="36"/>
	<rect x="90" class="st2" width="20" height="36"/>
</g>
<g id="Layer_1">
	<g id="Layer_2_00000003076887950256307700000015655285359934071992_" class="st0">
		<g class="st3">
			<rect x="70" y="-2" class="st4" width="40" height="40"/>
			<rect x="72" y="0" class="st4" width="36" height="36"/>
		</g>
	</g>
	<g id="Layer_1_00000103260627249768389850000008583206368179060130_" class="st0">
		<path class="st5" d="M95.4,18.4c2.7-1.8,4.6-4.9,4.6-8.4c0-5.5-4.5-10-10-10c-5.5,0-10,4.5-10,10c0,3.5,1.8,6.6,4.6,8.4
			C77.4,20,72,26.3,72,34v2h2v-2l0,0c0,0,0,0,0,0v0l0,0c0-7.7,6.3-13.9,14-13.9h4c7.7,0,14,6.3,14,14l0,0v2h2v-2
			C108,26.3,102.6,20,95.4,18.4z M90,18c-4.4,0-8-3.6-8-8s3.6-8,8-8c4.4,0,8,3.6,8,8S94.4,18,90,18z"/>
	</g>
	<g id="Layer_3" class="st0">
		<path class="st5" d="M107.3,31.4l-2.8-18c-0.3-1.9-2-3.4-3.9-3.4H100l0,0c0-5.5-4.5-10-10-10c-5.5,0-10,4.5-10,10h-0.6
			c-2,0-3.7,1.4-4,3.4l-2.8,18c-0.4,2.4,1.5,4.6,3.9,4.6h26.7C105.8,36,107.7,33.8,107.3,31.4z M90,2c4.4,0,8,3.6,8,8l0,0H82
			C82,5.6,85.6,2,90,2z M104.9,33.3c-0.4,0.5-0.9,0.7-1.5,0.7H76.7c-0.6,0-1.1-0.2-1.5-0.7s-0.6-1-0.5-1.6l2.8-18c0.2-1,1-1.7,2-1.7
			H80h20h0.6c1,0,1.8,0.7,2,1.7l2.8,18C105.4,32.3,105.2,32.8,104.9,33.3z"/>
	</g>
	<path class="st6" d="M3.7,18L17.8,4.1c0.3-0.3,0.3-0.7,0-1c-0.3-0.3-0.7-0.3-1,0L2.2,17.5c0,0,0,0,0,0c-0.3,0.3-0.3,0.7,0,1l0,0
		l0,0l0,0l14.6,14.3c0.1,0.1,0.3,0.2,0.5,0.2s0.4-0.1,0.5-0.2c0.3-0.3,0.3-0.7,0-1L3.7,18z"/>
	<path class="st6" d="M46.3,18L32.2,4.1c-0.3-0.3-0.3-0.7,0-1c0.3-0.3,0.7-0.3,1,0l14.6,14.3c0,0,0,0,0,0c0.3,0.3,0.3,0.7,0,1l0,0
		l0,0l0,0L33.2,32.8c-0.1,0.1-0.3,0.2-0.5,0.2s-0.4-0.1-0.5-0.2c-0.3-0.3-0.3-0.7,0-1L46.3,18z"/>
	<path class="st7" d="M63.7,18L77.8,4.1c0.3-0.3,0.3-0.7,0-1c-0.3-0.3-0.7-0.3-1,0L62.2,17.5c0,0,0,0,0,0c-0.3,0.3-0.3,0.7,0,1l0,0
		l0,0l0,0l14.6,14.3c0.1,0.1,0.3,0.2,0.5,0.2s0.3-0.1,0.5-0.2c0.3-0.3,0.3-0.7,0-1L63.7,18z"/>
	<path class="st7" d="M106.3,18L92.2,4.1c-0.3-0.3-0.3-0.7,0-1c0.3-0.3,0.7-0.3,1,0l14.6,14.3c0,0,0,0,0,0c0.3,0.3,0.3,0.7,0,1l0,0
		l0,0l0,0L93.2,32.8c-0.1,0.1-0.3,0.2-0.5,0.2s-0.3-0.1-0.5-0.2c-0.3-0.3-0.3-0.7,0-1L106.3,18z"/>
</g>
</svg>
