<?xml version="1.0" encoding="UTF-8"?>
<svg xmlns="http://www.w3.org/2000/svg" version="1.1" viewBox="0 0 434 80">
  <defs>
    <style>
      .cls-1 {
        fill: #fff;
        stroke-width: 0px;
      }
    </style>
  </defs>
  <g id="Layer_1" data-name="Layer 1" focusable="false">
    <g>
      <path class="cls-1" d="M415.3,79.3h16.6L399.1,1.3h-16c.9,2.7-.7,7.9-2.5,12.4l-26.3,65.5h9.2l11.6-28.5h28.5l11.6,28.5ZM377.9,44.3l11.6-28.4,11.6,28.4h-23.1Z"/>
      <path class="cls-1" d="M147.9,42.5h33.5v-5.6h-33.5V6.9h37.9V1.3h-55.9s1.7,3,1.7,11.1v66.9h55.2v-5.6h-38.9v-31.2h0Z"/>
      <path class="cls-1" d="M54.3,36.9H19.9V1.3H1.9s1.7,2.9,1.7,11.1v66.9h16.3v-36.1h34.5v36.1h16.3V1.3h-16.3v35.6Z"/>
      <path class="cls-1" d="M282,40.8c3.5-1.1,7-2.7,10.4-5.2,12-9,9-24.3,1.1-29.4-5.1-3.3-10.2-4.8-20.3-4.8h-31.9s1.7,2.9,1.7,11.1v66.9h16.3v-36.4h4.3c.2,0,.5,0,.8,0,4.9.3,7.5,1.8,11.6,7.1l20.3,29.3h16.6s-21.7-30.1-23.5-32.5c-1.5-2-4-5-7.4-6M263,37.3h-3.7V6.8h3.5c5.8,0,14.2,0,18.5,6.5,4.1,6.1,2.7,13.3-.3,17.4-3.8,5.1-8,6.7-18,6.7"/>
    </g>
  </g>
</svg>