<?xml version="1.0" encoding="UTF-8"?><svg id="Layer_1" xmlns="http://www.w3.org/2000/svg" viewBox="0 0 430 78.1"><defs><style>.cls-1{fill:#070606;}</style></defs><g id="Layer_1-2" focusable="false"><path class="cls-1" d="M413.4,78h16.6L397.2,0h-16c.9,2.7-.7,7.9-2.5,12.4l-26.3,65.5h9.2l11.6-28.5h28.5l11.6,28.5.1.1ZM376,43l11.6-28.4,11.6,28.4h-23.2Z"/><path class="cls-1" d="M146,41.2h33.5v-5.6h-33.5V5.6h37.9V0h-55.9s1.7,3,1.7,11.1v66.9h55.2v-5.6h-38.9v-31.2h0Z"/><path class="cls-1" d="M52.4,35.6H18V0H0s1.7,2.9,1.7,11.1v66.9h16.3v-36.1h34.5v36.1h16.3V0h-16.3v35.6h-.1Z"/><path class="cls-1" d="M280.1,39.5c3.5-1.1,7-2.7,10.4-5.2,12-9,9-24.3,1.1-29.4-5.1-3.3-10.2-4.8-20.3-4.8h-31.9s1.7,2.9,1.7,11.1v66.9h16.3v-36.4h5.1c4.9.3,7.5,1.8,11.6,7.1l20.3,29.3h16.6s-21.7-30.1-23.5-32.5c-1.5-2-4-5-7.4-6M261.1,36h-3.7V5.5h3.5c5.8,0,14.2,0,18.5,6.5,4.1,6.1,2.7,13.3-.3,17.4-3.8,5.1-8,6.7-18,6.7"/></g></svg>