<svg width="56" height="55" viewBox="0 0 56 55" fill="none" xmlns="http://www.w3.org/2000/svg">
<path fill-rule="evenodd" clip-rule="evenodd" d="M38 14C38 19.5228 33.5229 24 28 24C22.4772 24 18 19.5228 18 14C18 8.47715 22.4772 4 28 4C33.5229 4 38 8.47715 38 14ZM32.2982 27.3278C37.9274 25.5138 42 20.2325 42 14C42 6.26801 35.732 0 28 0C20.268 0 14 6.26801 14 14C14 20.2325 18.0726 25.5138 23.7018 27.3278C10.2783 29.3958 0 40.9976 0 55H3.73333C3.73333 41.5979 14.5979 30.7333 28 30.7333C41.4021 30.7333 52.2667 41.5979 52.2667 55H56C56 40.9976 45.7217 29.3958 32.2982 27.3278Z" fill="white"/>
</svg>
