<svg width="56" height="56" viewBox="0 0 56 56" fill="none" xmlns="http://www.w3.org/2000/svg">
<g clip-path="url(#clip0_1_41)">
<path fill-rule="evenodd" clip-rule="evenodd" d="M42.1875 22.5C42.1875 33.3731 33.3731 42.1875 22.5 42.1875C11.6269 42.1875 2.8125 33.3731 2.8125 22.5C2.8125 11.6269 11.6269 2.8125 22.5 2.8125C33.3731 2.8125 42.1875 11.6269 42.1875 22.5ZM37.3987 39.3609C33.4303 42.8701 28.2139 45 22.5 45C10.0736 45 0 34.9264 0 22.5C0 10.0736 10.0736 0 22.5 0C34.9264 0 45 10.0736 45 22.5C45 28.2139 42.8701 33.4303 39.3609 37.3987L56 54.0378L54.0378 56L37.3987 39.3609Z" fill="white"/>
</g>
<defs>
<clipPath id="clip0_1_41">
<rect width="56" height="56" fill="white"/>
</clipPath>
</defs>
</svg>
