<?xml version="1.0" encoding="UTF-8"?>
<svg xmlns="http://www.w3.org/2000/svg" version="1.1" viewBox="0 0 160 40">
  <defs>
    <style>
      .cls-1 {
        fill: #fff;
      }

      .cls-1, .cls-2 {
        stroke-width: 0px;
      }

      .cls-3 {
        display: none;
      }

      .cls-2 {
        fill: #ed1c24;
        opacity: .3;
      }
    </style>
  </defs>
  <g id="Layer_1" data-name="Layer 1" class="cls-3">
    <rect class="cls-2" x="60" width="40" height="40"/>
    <rect class="cls-2" x="62" y="2" width="36" height="36"/>
  </g>
  <g id="facebook">
    <path class="cls-1" d="M21.9,14.1v2.7h4.1l-.5,4.4h-3.6v10.8h-4.4v-10.8h-3.5v-4.4h3.5v-3.8c0-6.6,8.5-4.8,8.5-4.8v3.8h-2.2c-2.1,0-2,2-2,2"/>
  </g>
  <g id="youtube">
    <path class="cls-1" d="M71.6,14.6c-.5-1.8-1.3-2.5-2.9-2.8-.9-.1-5.3-.3-8.7-.3s-7.8.2-8.7.3c-1.6.3-2.4,1-2.9,2.8-.2.6-.4,4-.4,5.3v.3c0,1.3.2,4.7.4,5.3.5,1.8,1.3,2.5,2.9,2.8.9.1,5.3.3,8.7.3h0c3.5,0,7.8-.2,8.7-.3,1.6-.3,2.4-1,2.9-2.8.2-.6.4-4,.4-5.3v-.3c0-1.3-.2-4.7-.4-5.3ZM57.1,23.1v-6.1l5.8,3-5.8,3.1Z"/>
  </g>
  <g id="insta">
    <path class="cls-1" d="M107.3,8.1c-.2,0-.4,0-.6,0h-13.3c-.3,0-.5,0-.8,0-2.3.3-4.2,2.2-4.5,4.5,0,.2,0,.5,0,.8v13.3c0,.2,0,.4,0,.6.3,2.6,2.5,4.7,5.3,4.7h13.3c2.9,0,5.3-2.4,5.3-5.3v-13.3c0-2.7-2.1-5-4.7-5.3ZM100,26.7c-3.7,0-6.7-3-6.7-6.7s3-6.7,6.7-6.7,6.7,3,6.7,6.7-3,6.7-6.7,6.7ZM107.3,14.7c-1.1,0-2-.9-2-2s.9-2,2-2,2,.9,2,2-.9,2-2,2Z"/>
  </g>
  <g id="kakao">
    <path class="cls-1" d="M140,8c-6.3,0-11.3,4.7-11.3,10.5s1.8,6.3,4.2,8.2h0v5c0,.2.3.4.5.2l4.3-3.2h0c.7.2,1.5.2,2.2.2,6.3,0,11.3-4.7,11.3-10.5s-5.1-10.5-11.3-10.5ZM140.2,17.6h-1.6c-.2-1.1-1.2-1.8-2.4-1.8-1.6,0-2.7,1.1-2.7,2.7s.9,2.4,2.1,2.6c.2,0,.4,0,.5,0,.4,0,.8,0,1.2-.3.6-.3,1-.8,1.2-1.4h1.6c-.4,2-1.9,3.3-4,3.3s-4.3-1.8-4.3-4.3h0c0-2.5,1.9-4.3,4.3-4.3s3.6,1.3,4,3.3h0ZM147,19v3.6h-1.5v-3.4c0-.8-.5-1.2-1.2-1.2s-.7.1-.9.4c-.2.2-.3.6-.3,1.1v3.2h-1.5v-8.3h0s1.5,0,1.5,0h0v3.1c.4-.5.9-.8,1.7-.8s1.2.2,1.6.6c.4.4.6,1,.6,1.8h0Z"/>
  </g>
</svg>